<?xml version="1.0" encoding="UTF-8"?>
<svg width="12px" height="12px" viewBox="0 0 12 12" version="1.1" xmlns="http://www.w3.org/2000/svg" xmlns:xlink="http://www.w3.org/1999/xlink">
    <!-- Generator: Sketch 48.1 (47250) - http://www.bohemiancoding.com/sketch -->
    <title>icon-question</title>
    <desc>Created with Sketch.</desc>
    <defs></defs>
    <g id="Website-r03-v01" stroke="none" stroke-width="1" fill="none" fill-rule="evenodd" transform="translate(-791.000000, -3295.000000)">
        <g id="icon-question" transform="translate(791.000000, 3295.000000)">
            <circle id="Oval-4" fill="#19ADE8" cx="6" cy="6" r="6"></circle>
            <path d="M5.18255639,6.96018735 C5.18255639,6.72599415 5.21142828,6.5269329 5.26917293,6.36299766 C5.32691758,6.19906241 5.42436022,6.04683911 5.56150376,5.90632319 C5.76361003,5.6955493 5.94947284,5.5121007 6.11909774,5.3559719 C6.28872265,5.19984309 6.4348866,5.05347453 6.55759398,4.91686183 C6.68030137,4.78024912 6.77593951,4.65144479 6.84451128,4.53044496 C6.91308305,4.40944514 6.94736842,4.28259239 6.94736842,4.1498829 C6.94736842,3.89227037 6.8733842,3.69125755 6.72541353,3.54683841 C6.57744287,3.40241926 6.39158007,3.33021077 6.16781955,3.33021077 C5.82856973,3.33021077 5.5705272,3.43169297 5.39368421,3.63466042 C5.21684122,3.83762787 5.11759409,4.08352705 5.09593985,4.37236534 L3.42857143,4.25526932 C3.50797032,3.42778665 3.78947127,2.79742605 4.27308271,2.36416862 C4.75669415,1.93091118 5.37743982,1.71428571 6.13533835,1.71428571 C6.46737008,1.71428571 6.77954741,1.76307523 7.0718797,1.86065574 C7.36421199,1.95823624 7.62225452,2.1046048 7.84601504,2.29976581 C8.06977555,2.49492681 8.24661589,2.73692283 8.37654135,3.02576112 C8.50646682,3.31459941 8.57142857,3.64636815 8.57142857,4.02107728 C8.57142857,4.24746405 8.54977465,4.45238004 8.50646617,4.63583138 C8.46315768,4.81928273 8.38917346,5.00077974 8.28451128,5.18032787 C8.1798491,5.359876 8.04270762,5.54137301 7.87308271,5.72482436 C7.7034578,5.9082757 7.4887231,6.10928852 7.22887218,6.32786885 C7.06285631,6.46838478 6.95097773,6.60499543 6.89323308,6.73770492 C6.83548843,6.8704144 6.80661654,7.0031219 6.80661654,7.13583138 L6.80661654,7.47540984 L5.18255639,7.47540984 L5.18255639,6.96018735 Z M5.14285714,9.42857143 C5.14285714,9.31055842 5.16459606,9.19875829 5.20807453,9.0931677 C5.25155301,8.98757711 5.31211141,8.89596312 5.38975155,8.81832298 C5.46739169,8.74068284 5.55900568,8.68012444 5.66459627,8.63664596 C5.77018686,8.59316748 5.88198699,8.57142857 6,8.57142857 C6.11801301,8.57142857 6.22981314,8.59316748 6.33540373,8.63664596 C6.44099432,8.68012444 6.53260831,8.74068284 6.61024845,8.81832298 C6.68788859,8.89596312 6.74844699,8.98757711 6.79192547,9.0931677 C6.83540394,9.19875829 6.85714286,9.31055842 6.85714286,9.42857143 C6.85714286,9.54658444 6.83540394,9.65838457 6.79192547,9.76397516 C6.74844699,9.86956575 6.68788859,9.96117974 6.61024845,10.0388199 C6.53260831,10.11646 6.44099432,10.1770184 6.33540373,10.2204969 C6.22981314,10.2639754 6.11801301,10.2857143 6,10.2857143 C5.88198699,10.2857143 5.77018686,10.2639754 5.66459627,10.2204969 C5.55900568,10.1770184 5.46739169,10.11646 5.38975155,10.0388199 C5.31211141,9.96117974 5.25155301,9.86956575 5.20807453,9.76397516 C5.16459606,9.65838457 5.14285714,9.54658444 5.14285714,9.42857143 Z" id="?" fill="#FFFFFF"></path>
        </g>
    </g>
</svg>