<svg xmlns="http://www.w3.org/2000/svg" xmlns:xlink="http://www.w3.org/1999/xlink" width="56" height="83" viewBox="0 0 56 83">
    <defs>
        <path id="a" d="M28 11C15.406 11 4 20.925 4 33.172 4 45.417 14.407 60.035 28 81c13.593-20.965 24-35.583 24-47.828C52 20.925 40.597 11 28 11zm0 32.083c-4.971 0-9-3.917-9-8.75s4.029-8.75 9-8.75 9 3.917 9 8.75-4.029 8.75-9 8.75z"/>
    </defs>
    <g fill="none" fill-rule="evenodd">
        <path fill="#FFF" d="M28 0C13.307 0 0 11.769 0 26.29 0 40.808 12.142 58.141 28 83c15.858-24.859 28-42.192 28-56.71C56 11.77 42.697 0 28 0z"/>
        <g transform="translate(0 -7)">
            <use fill="#009CDB" xlink:href="#a"/>
            <path stroke="#038EC7" stroke-width="3" d="M28 78.252c2.24-3.437 6.787-10.416 8.221-12.657 3.243-5.065 5.614-8.966 7.563-12.503 4.553-8.264 6.716-14.49 6.716-19.92C50.5 21.995 40.027 12.5 28 12.5c-12.025 0-22.5 9.496-22.5 20.672 0 5.43 2.163 11.656 6.716 19.92 1.95 3.537 4.32 7.438 7.563 12.503 1.434 2.24 5.981 9.22 8.221 12.657zm0-33.669c-5.79 0-10.5-4.579-10.5-10.25 0-5.67 4.71-10.25 10.5-10.25s10.5 4.58 10.5 10.25c0 5.671-4.71 10.25-10.5 10.25z"/>
        </g>
    </g>
</svg>
