<svg xmlns="http://www.w3.org/2000/svg" width="164" height="120" viewBox="0 0 164 120">
    <g fill="none" fill-rule="evenodd">
        <path fill="#FFF" d="M49.762 48.113A34.878 34.878 0 0 0 35.2 44.939C15.76 44.94 0 60.79 0 80.346 0 97.404 11.995 111.642 27.963 115v-9.831c-10.674-3.154-18.497-13.08-18.497-24.823C9.466 66.073 21.01 54.46 35.2 54.46c3.7 0 7.281.78 10.642 2.32l11.184 5.12 2.068-12.186c3.951-23.289 23.874-40.193 47.37-40.193 26.506 0 48.07 21.692 48.07 48.355 0 14.538-6.419 27.587-16.546 36.459v11.92C153.638 95.904 164 78.089 164 57.876 164 25.964 138.19 0 106.464 0 78.047 0 54.39 20.834 49.762 48.113z"/>
        <g transform="translate(58 47)">
            <ellipse cx="31" cy="66.823" fill="#00395A" rx="31" ry="6.177"/>
            <path fill="#19ADE8" d="M30.605 0C18.685 0 7.89 9.555 7.89 21.344c0 11.787 9.85 25.859 22.714 46.04 12.864-20.181 22.713-34.253 22.713-46.04C53.318 9.554 42.526 0 30.605 0zm0 31.178c-4.74 0-8.581-3.827-8.581-8.549 0-4.722 3.841-8.549 8.58-8.549 4.74 0 8.581 3.827 8.581 8.55 0 4.72-3.841 8.548-8.58 8.548z"/>
        </g>
    </g>
</svg>
