<svg xmlns="http://www.w3.org/2000/svg" xmlns:xlink="http://www.w3.org/1999/xlink" width="118" height="144" viewBox="0 0 118 144">
    <defs>
        <path id="a" d="M0 0h262v180H0z"/>
    </defs>
    <g fill="none" fill-rule="evenodd" transform="translate(-78 -21)">
        <mask id="b" fill="#fff">
            <use xlink:href="#a"/>
        </mask>
        <g mask="url(#b)">
            <path fill="#C0EDFF" d="M123.66 44.612c-11.692 16.53-7.589 39.28 9.164 50.816 16.756 11.537 39.82 7.489 51.514-9.04 11.695-16.528 7.592-39.28-9.164-50.815-16.754-11.538-39.818-7.49-51.513 9.039"/>
            <path fill="#EDFAFF" d="M184.341 84.458c-7.386 10.4-19.313 15.831-31.322 15.53-2.613-12.366-.253-25.716 7.684-36.888 6.343-8.929 15.245-15.052 25.054-18.1 7.233 11.9 7.187 27.351-1.416 39.458"/>
            <path fill="#19ADE8" d="M85 151.113L97.642 160 140 98.887 127.358 90z"/>
            <path fill="#00395A" d="M78 150.86L98.236 165 133 115.138 112.764 101z"/>
            <path fill="#FFF" d="M169.26 63.994a7 7 0 1 0 11.478 8.01 7 7 0 0 0-11.478-8.01"/>
            <path fill="#00395A" d="M135.579 89.395c14.576 10.173 34.641 6.603 44.815-7.973 10.174-14.577 6.605-34.641-7.972-44.816C157.845 26.43 137.78 30 127.607 44.578c-10.174 14.578-6.606 34.642 7.972 44.817m42.457-60.833c19.019 13.274 23.676 39.455 10.403 58.474-13.276 19.02-39.455 23.676-58.475 10.402-19.02-13.275-23.676-39.454-10.403-58.474 13.277-19.02 39.455-23.676 58.475-10.402"/>
        </g>
    </g>
</svg>
