<svg xmlns="http://www.w3.org/2000/svg" xmlns:xlink="http://www.w3.org/1999/xlink" width="158" height="145" viewBox="0 0 158 145">
    <defs>
        <path id="a" d="M0 0h262v180H0z"/>
    </defs>
    <g fill="none" fill-rule="evenodd" transform="translate(-52 -15)">
        <mask id="b" fill="#fff">
            <use xlink:href="#a"/>
        </mask>
        <g mask="url(#b)">
            <g fill="#19ADE8">
                <path d="M177.08 15c0 64.61-33.535 86.031-36.814 112.045H121.8C118.52 101.031 84.913 79.611 84.913 15h92.168zM140.464 133.636h-18.868c-1.33 7.824-4.148 17.262-16.926 17.262V160h52.667v-9.102c-13.16 0-15.61-9.438-16.873-17.262z"/>
            </g>
            <path fill="#00395A" fill-rule="nonzero" d="M187.074 123.117c-9.23-4.178-17.176-1.252-22.08 1.931 4.904-3.19 10.553-9.649 10.5-19.792-17.058 6.841-15.109 16.45-18.203 22.046-2.074 3.764-6.63 1.806-6.63 1.806l-1.402 2.32c2.403 1.272 6.511 2.103 11.297 2.103 8.605 0 19.415-2.696 26.518-10.414zm16.09-26.508c-9.098.639-13.944 6.993-16.465 11.62 2.521-4.627 4.042-12.8-.33-20.815-10.599 12.714-4.95 19.496-5.016 25.25-.026 2.814-3.226 2.748-3.226 2.748l.046 2.663c2.068-.27 20.764-4.725 24.99-21.466zm6.82-25.507c-7.709 2.808-10.27 9.708-11.31 14.335 1.04-4.627.27-12.279-5.497-18.125-6.024 13.63.54 18.092 1.91 23.088.67 2.445-2.14 3.994-2.14 3.994l1.909 1.18c.401-.191 15.701-8.78 15.128-24.472zm-1.316-24.993c-5.945 4.39-6.696 11.126-6.413 15.39-.276-4.258-2.6-10.803-9.058-14.382-1.738 13.301 5.062 15.483 7.518 19.444 1.198 1.937.151 4.336.151 4.336l1.87-.125s.171-.837 1.113-2.913c1.915-4.244 8.262-8.792 4.819-21.75zm-12.515-17.927s-1.798 6.485-.297 11.415c1.607 5.26 5.748 8.97 5.748 8.97s2.238-5.753.651-11.422c-1.461-5.22-6.102-8.963-6.102-8.963zM112.74 131.428l-1.402-2.32s-4.55 1.958-6.63-1.806c-3.094-5.595-1.145-15.205-18.203-22.046-.052 10.143 5.596 16.609 10.5 19.792-4.904-3.19-12.85-6.11-22.08-1.93 7.097 7.717 17.914 10.42 26.518 10.42 4.786-.007 8.888-.838 11.297-2.11zm-28.92-13.36l.045-2.662s-3.2.066-3.225-2.749c-.06-5.753 5.582-12.529-5.017-25.25-4.371 8.015-2.85 16.195-.33 20.815-2.52-4.627-7.373-10.98-16.464-11.62 4.226 16.748 22.923 21.203 24.99 21.467zM67.144 95.575l1.909-1.18s-2.811-1.555-2.14-3.994c1.37-4.996 7.933-9.458 1.91-23.088-5.768 5.846-6.544 13.498-5.498 18.125-1.04-4.627-3.594-11.527-11.31-14.335-.58 15.693 14.72 24.28 15.129 24.472zm-8.993-27.708c.941 2.076 1.112 2.913 1.112 2.913l1.87.125s-1.047-2.399.151-4.337c2.456-3.96 9.25-6.149 7.519-19.443-6.472 3.572-8.79 10.11-9.066 14.375.277-4.264-.474-11.007-6.412-15.39-3.443 12.958 2.903 17.506 4.826 21.757zm1.586-30.72c-1.58 5.668.652 11.421.652 11.421s4.141-3.71 5.747-8.97c1.501-4.93-.296-11.415-.296-11.415s-4.641 3.743-6.103 8.963z"/>
            <path fill="#009CDB" d="M101.633 15c0 64.583 28.35 85.994 25.109 111.997-3.521.004-5.282.004-5.282 0C118.22 100.994 85 79.583 85 15h16.633z"/>
            <path fill="#FFF" fill-rule="nonzero" d="M131 39l6.113 13.262L151 54.28l-10.107 10.213L143.36 79 131 72.048 118.638 79l2.469-14.508L111 54.279l13.887-2.017z"/>
            <path fill="#009CDB" d="M126.484 134.991l-4.708-.991c-1.318 7.716-4.111 17.024-16.776 17.024V160h52v-8.976c-4.525 0-23.213 3.118-34.089-2.631-2.244-3.766 1.265-7.564 3.573-13.402z"/>
        </g>
    </g>
</svg>
