<svg xmlns="http://www.w3.org/2000/svg" width="164" height="119" viewBox="0 0 164 119">
    <g fill="none" fill-rule="evenodd">
        <path fill="#FFF" d="M113.79 47.435a35.043 35.043 0 0 1 14.506-3.129c19.364 0 35.062 15.628 35.062 34.91 0 16.816-11.948 30.854-27.853 34.165v-9.693c10.632-3.11 18.424-12.895 18.424-24.473 0-14.072-11.499-25.522-25.633-25.522-3.686 0-7.253.77-10.6 2.287l-11.14 5.048-2.06-12.014C100.56 26.054 80.715 9.387 57.31 9.387c-26.403 0-47.883 21.386-47.883 47.674 0 14.333 6.395 27.199 16.483 35.946v11.753C10.32 94.553 0 76.988 0 57.06 0 25.598 25.71 0 57.311 0c28.306 0 51.87 20.541 56.48 47.435z"/>
        <path fill="#19ADE8" d="M110.93 97h-.007V83.57c-.792.278-1.633.458-2.52.458-.654 0-1.279-.108-1.886-.262V97h-5.35v-8.412c0-.795-.648-1.438-1.448-1.438h-4.9c-.8 0-1.45.643-1.45 1.438V97H86.85v-1.348c0-.794-.65-1.437-1.45-1.437h-5.543c-.8 0-1.45.643-1.45 1.437V97H70.06V93.23c0-.794-.65-1.439-1.45-1.439h-8.26c-.8 0-1.449.645-1.449 1.439V97h-3.23V83.67c-.702.211-1.434.36-2.204.36-.77 0-1.501-.149-2.202-.36V97h-.009c-1.779 0-3.222 1.435-3.222 3.198v15.246c0 1.765 1.443 3.194 3.222 3.194h59.676c1.782 0 3.224-1.43 3.224-3.194v-15.246c0-1.763-1.444-3.198-3.224-3.198"/>
        <path fill="#00395A" d="M42.748 67.652h76.646c.535 0 1.011-.342 1.181-.846a1.227 1.227 0 0 0-.44-1.378l-16.287-12.02a1.258 1.258 0 0 0-.744-.246H59.042a1.25 1.25 0 0 0-.743.245l-16.291 12.02a1.227 1.227 0 0 0-.44 1.379c.17.504.646.846 1.18.846"/>
        <path fill="#00395A" d="M52.666 81.598c5.03 0 9.11-2.753 9.11-6.144v-8.549c0-.649-.784-1.175-1.747-1.175H45.304c-.963 0-1.746.526-1.746 1.175v8.55c0 3.39 4.078 6.143 9.108 6.143M80.694 75.454v-8.549c0-.649-.784-1.175-1.746-1.175H64.223c-.964 0-1.747.526-1.747 1.175v8.55c0 3.39 4.079 6.143 9.108 6.143 5.03 0 9.11-2.753 9.11-6.144zM118.626 75.454v-8.549c0-.649-.784-1.175-1.746-1.175h-14.726c-.963 0-1.746.526-1.746 1.175v8.55c0 3.39 4.079 6.143 9.108 6.143 5.03 0 9.11-2.753 9.11-6.144zM90.55 81.598c5.03 0 9.11-2.753 9.11-6.144v-8.549c0-.649-.784-1.175-1.746-1.175H83.188c-.963 0-1.746.526-1.746 1.175v8.55c0 3.39 4.079 6.143 9.108 6.143"/>
    </g>
</svg>
