<svg xmlns="http://www.w3.org/2000/svg" xmlns:xlink="http://www.w3.org/1999/xlink" width="189" height="166" viewBox="0 0 189 166">
    <defs>
        <path id="a" d="M0 0h262v180H0z"/>
        <path id="c" d="M0 165.595h110.736V0H0z"/>
        <path id="e" d="M10.44 0h10.44v35.497H0V0z"/>
        <path id="g" d="M7.83 0h7.83v27.145H0V0z"/>
        <path id="i" d="M5.742 0h5.742v19.836H0V0z"/>
        <path id="k" d="M5.742 0h5.742v19.836H0V0z"/>
    </defs>
    <g fill="none" fill-rule="evenodd" transform="translate(-36 -3)">
        <mask id="b" fill="#fff">
            <use xlink:href="#a"/>
        </mask>
        <g mask="url(#b)">
            <g transform="translate(76.717 3)">
                <path fill="#023A5A" d="M89.686 12.721c16.753.028 12.228 18.845 12.228 18.845 0 .305-1.449 12.929-11.621 13.507a5.077 5.077 0 0 1-.523.028c-.032 0-.066-.004-.1-.004s-.067.004-.101.004c-.18 0-.353-.01-.522-.028-10.178-.578-11.625-13.202-11.625-13.507 0 0-4.525-18.817 12.228-18.845v-.003c.007 0 .01.003.02.003.003 0 .007-.003.016-.003v.003z"/>
                <path fill="#10537C" d="M101.916 31.102l-12.23-2.932v-.008l-.015.006-.022-.006v.008l-12.23 2.932s1.593 12.839-2.883 15.654h30.266c-4.48-2.815-2.886-15.654-2.886-15.654"/>
                <mask id="d" fill="#fff">
                    <use xlink:href="#c"/>
                </mask>
                <path fill="#8BCEEC" d="M86.46 44.152h6.49v-7.081h-6.49z" mask="url(#d)"/>
                <path fill="#8BCEEC" d="M91.667 14.026H87.97c-12.52 0-9.409 17.188-9.409 17.188 0 .284 3.192 9.399 11.254 9.399 8.068 0 11.265-9.115 11.265-9.399 0 0 1.85-17.188-9.414-17.188" mask="url(#d)"/>
                <path fill="#8BCEEC" d="M79.878 29.71c.236 1.44-1.08 3.89-1.67 3.165-.731-.9-1.24-1.217-1.669-2.61-.573-1.847.928-3.116 1.66-2.54 1.112.872 1.44.546 1.68 1.985M99.533 29.71c-.24 1.44 1.08 3.89 1.67 3.165.731-.9 1.234-1.217 1.668-2.61.572-1.847-.927-3.116-1.665-2.54-1.11.872-1.435.546-1.673 1.985" mask="url(#d)"/>
                <path fill="#10537C" d="M76.93 28.03c1.658-1.58 2.292 1.911 2.292 1.911s.261-3.438 5.06-3.801c7.272-.548 10.282-7.316 10.282-7.316s.317-3.556.022-5.416c-1.635-2.383-19.195-5.02-17.655 14.622" mask="url(#d)"/>
                <path fill="#10537C" d="M94.586 13.409c-.816 1.694-2.658 4.594-.904 6.964 0 0 1.165 4.914 4.18 6.083 2.235.863 2.323 3.486 2.323 3.486s.263-2.3 1.614-2.356c.159-.008.376.143.61.376.588-4.607.588-14.553-7.823-14.553" mask="url(#d)"/>
                <path fill="#8BCEEC" d="M89.235 41.17l-11.118 2.147s3.234 1.337 3.234 4.717l3.159 32.133c0 3.382.057 6.123 3.999 6.123h.726V41.17z" mask="url(#d)"/>
                <path fill="#8BCEEC" d="M89.235 53.615h-.726c-3.942 0-6.355 10.585-6.355 13.967 0 0-5.353 14.302-4.972 25.792.38 11.49 1.94 4.622 5.884 4.622h6.17V53.615zM73.456 92.22a.625.625 0 0 1 .52.722l-.38 2.356a.63.63 0 0 1-1.243-.2l.385-2.359a.623.623 0 0 1 .718-.518" mask="url(#d)"/>
                <path fill="#8BCEEC" d="M73.057 94.695c.34.054.577.378.517.722l-.378 2.357a.63.63 0 1 1-1.247-.202l.386-2.355a.628.628 0 0 1 .722-.522M71.975 91.978a.7.7 0 0 1 .58.803l-.474 2.92a.696.696 0 1 1-1.374-.223l.47-2.92a.702.702 0 0 1 .798-.58" mask="url(#d)"/>
                <path fill="#8BCEEC" d="M71.483 95.033c.384.062.64.42.579.8l-.485 3.003a.7.7 0 0 1-1.385-.226l.492-3a.694.694 0 0 1 .799-.577M70.479 91.763c.375.06.622.41.568.784l-.488 2.986a.68.68 0 0 1-.782.564.674.674 0 0 1-.563-.78l.484-2.99a.681.681 0 0 1 .78-.564" mask="url(#d)"/>
                <path fill="#8BCEEC" d="M69.973 94.88a.685.685 0 0 1 .566.783l-.405 2.493a.683.683 0 1 1-1.346-.22l.404-2.49a.68.68 0 0 1 .781-.566M69.109 91.515a.548.548 0 0 1 .457.633l-.391 2.415a.551.551 0 1 1-1.089-.177l.39-2.415a.552.552 0 0 1 .633-.456" mask="url(#d)"/>
                <path fill="#8BCEEC" d="M68.7 94.033a.553.553 0 0 1 .458.633l-.328 2.015a.55.55 0 0 1-.631.456.548.548 0 0 1-.456-.633l.325-2.014a.55.55 0 0 1 .632-.457M74.183 90.18a.722.722 0 0 1 .909.462l.85 2.597a.72.72 0 1 1-1.37.45l-.849-2.6a.72.72 0 0 1 .46-.908" mask="url(#d)"/>
                <path fill="#8BCEEC" d="M73.948 93.106s.091-1.164.286-.441c.216.776 1.153-1.121 1.153-1.121s-.48-1.7-1.14-3.218c-.665-1.517-1-2.954-1-2.954l-2.515-.409s-.606 1.408-1.156 2.371c-.552.964-1.182 5.156-1.182 5.156l5.554.616z" mask="url(#d)"/>
                <path fill="#8BCEEC" d="M72.855 88.326c-.623 2.142-.765 3.124-1.824 2.952-1.06-.173-1.083-2.129-1.083-2.129 1.81-19.018 7.025-44.362 7.025-44.362A1.942 1.942 0 0 1 79.2 43.18c1.061.17 3.731 2.337 3.563 3.398 0 0-6.023 28.472-9.909 41.748" mask="url(#d)"/>
                <path fill="#2DABDF" d="M85.724 162.647c0 3.236-1.232 2.58-3.275 2.58-2.049 0-3.589.166-3.589-2.934 0-2.966 1.716-5.86 3.76-5.86 2.049 0 3.104 4.58 3.104 6.214" mask="url(#d)"/>
                <path fill="#8BCEEC" d="M85.368 130.933c-4.371 6.225.836 1.86-2.112 1.86-2.944 0 .787 7.544-2.393-1.86-3.18-9.404-3.727-36.878-3.727-36.878 0-2.949.822-5.339 3.768-5.339 2.948 0 7.791 1.898 7.791 4.845 0 0 1.045 31.146-3.327 37.372" mask="url(#d)"/>
                <path fill="#8BCEEC" d="M84.018 156.427c0 2.95 2.771 5.866-1.726 5.844-3.756.322-2.213-2.959-2.213-5.907 0 0-2.16-19.053.52-26.891 2.24-6.562-1.856-7.177 1.09-7.177s2.467 1.673 3.972 7.558c2.01 7.84-1.643 26.573-1.643 26.573" mask="url(#d)"/>
                <path fill="#2DABDF" d="M96.025 165.226c2.047 0 3.588.167 3.588-2.933 0-2.966-1.716-5.86-3.765-5.86-2.049 0-3.098 4.58-3.098 6.214 0 3.236 1.226 2.58 3.275 2.58z" mask="url(#d)"/>
                <path fill="#8BCEEC" d="M93.106 130.933c4.365 6.225-.842 1.86 2.106 1.86 2.95 0-.781 7.544 2.393-1.86 3.18-9.404 3.727-36.878 3.727-36.878 0-2.949-.816-5.339-3.768-5.339-2.944 0-7.786 1.898-7.786 4.845 0 0-1.044 31.146 3.328 37.372" mask="url(#d)"/>
                <path fill="#8BCEEC" d="M94.453 156.427c0 2.95-2.774 5.866 1.729 5.844 3.75.322 2.208-2.959 2.208-5.907 0 0 2.164-19.053-.514-26.891-2.24-6.562 1.855-7.177-1.093-7.177-2.95 0-2.467 1.673-3.976 7.558-2.006 7.84 1.646 26.573 1.646 26.573M89.235 41.17l11.125 2.152s-3.238 1.332-3.238 4.712L93.964 80.95c0 3.384-.063 5.341-4.005 5.341h-.724V41.17z" mask="url(#d)"/>
                <path fill="#8BCEEC" d="M89.235 53.615h.724c3.942 0 6.355 10.585 6.355 13.967 0 0 4.978 12.775 4.978 25.792 0 13.017-1.94 4.622-5.886 4.622h-6.17V53.615zM105.012 92.22a.629.629 0 0 0-.52.722l.386 2.356a.625.625 0 0 0 .718.52.632.632 0 0 0 .522-.72l-.383-2.359a.626.626 0 0 0-.723-.518" mask="url(#d)"/>
                <path fill="#8BCEEC" d="M105.415 94.695a.628.628 0 0 0-.52.722l.382 2.357a.628.628 0 1 0 1.242-.203l-.38-2.354a.635.635 0 0 0-.724-.522M106.493 91.978a.703.703 0 0 0-.58.803l.476 2.92a.698.698 0 1 0 1.377-.222l-.473-2.92a.7.7 0 0 0-.8-.58" mask="url(#d)"/>
                <path fill="#8BCEEC" d="M106.988 95.033a.7.7 0 0 0-.579.8l.488 3.003a.696.696 0 0 0 1.374-.226l-.482-3a.698.698 0 0 0-.801-.577M107.99 91.763a.684.684 0 0 0-.563.784l.482 2.986a.686.686 0 0 0 .787.564.68.68 0 0 0 .564-.78l-.484-2.99a.686.686 0 0 0-.786-.564" mask="url(#d)"/>
                <path fill="#8BCEEC" d="M108.495 94.88a.685.685 0 0 0-.563.783l.403 2.493a.687.687 0 0 0 .782.566.686.686 0 0 0 .567-.786l-.402-2.49a.683.683 0 0 0-.787-.566M109.362 91.515a.55.55 0 0 0-.456.633l.393 2.415c.044.3.327.506.63.456a.556.556 0 0 0 .459-.633l-.39-2.415a.555.555 0 0 0-.636-.456" mask="url(#d)"/>
                <path fill="#8BCEEC" d="M109.768 94.033a.55.55 0 0 0-.454.633l.324 2.015c.051.3.334.504.636.456a.55.55 0 0 0 .454-.633l-.324-2.014a.554.554 0 0 0-.636-.457M104.29 90.18a.716.716 0 0 0-.908.462l-.851 2.597a.718.718 0 0 0 .463.911.724.724 0 0 0 .908-.461l.846-2.6a.722.722 0 0 0-.459-.908" mask="url(#d)"/>
                <path fill="#8BCEEC" d="M104.52 93.106s-.09-1.164-.286-.441c-.21.776-1.15-1.121-1.15-1.121s.479-1.7 1.142-3.218c.664-1.517.995-2.954.995-2.954l2.52-.409s.606 1.408 1.157 2.371c.546.964 1.182 5.156 1.182 5.156l-5.56.616z" mask="url(#d)"/>
                <path fill="#8BCEEC" d="M105.61 88.326c.631 2.142.773 3.124 1.833 2.952 1.06-.173 1.077-2.129 1.077-2.129-1.805-19.018-7.02-44.362-7.02-44.362a1.944 1.944 0 0 0-2.234-1.607c-1.059.17-3.73 2.337-3.557 3.398 0 0 6.018 28.472 9.9 41.748" mask="url(#d)"/>
                <path fill="#023A5A" d="M100.25 74.79c-1.969-6.778-3.07-9.19-2.88-13.655.193-4.71.96-7.52.96-7.52s-.443-2.985-.408-4.33c.097-4.377.903-6.595.903-6.595l-1.483-.321c-2.057 6.224-7.672 5.903-7.672 5.903s-5.621.321-7.672-5.903l-1.485.32s.803 2.22.906 6.596c.028 1.345-.413 4.33-.413 4.33s.766 2.81.964 7.52c.184 4.465-1.16 6.81-2.887 13.655-2.56 10.174-3.974 22.176-4.582 32.829a727.228 727.228 0 0 1-1.335 19.08h33.006s-.731-8.428-1.336-19.08c-.606-10.653-1.753-23.085-4.585-32.829z" mask="url(#d)"/>
                <path fill="#8BCEEC" d="M31.136 1.053l-.005-.002-.017.002-.02-.002v.002c-18.609.024-13.581 18.311-13.581 18.311 0 .295 1.607 12.56 12.912 13.125.186.016.377.025.576.025l.113-.002.113.002c.203 0 .392-.009.581-.025 11.3-.564 12.908-12.83 12.908-13.125 0 0 5.026-18.287-13.58-18.311" mask="url(#d)"/>
                <path fill="#8BCEEC" d="M33.335 2.5H29.23c-13.911 0-10.455 19.096-10.455 19.096 0 .315 3.55 10.436 12.508 10.436 8.96 0 12.51-10.12 12.51-10.436 0 0 2.055-19.095-10.457-19.095" mask="url(#d)"/>
                <path fill="#8BCEEC" d="M27.124 35.689h7.983v-7.31h-7.983zM20.239 19.927c.265 1.598-1.2 4.32-1.855 3.515-.816-1-1.376-1.354-1.855-2.903-.636-2.048 1.03-3.46 1.846-2.82 1.235.967 1.597.608 1.864 2.208M42.075 19.927c-.266 1.598 1.195 4.32 1.854 3.515.812-1 1.372-1.354 1.855-2.903.632-2.048-1.03-3.46-1.85-2.82-1.236.967-1.598.608-1.859 2.208" mask="url(#d)"/>
                <path fill="#10537C" d="M16.966 18.057c1.844-1.754 2.663 3.73 2.663 3.73s.173-5.424 5.5-5.828c8.08-.61 11.424-8.127 11.424-8.127s.352-3.95.025-6.016C34.761-.832 15.255-3.763 16.966 18.057" mask="url(#d)"/>
                <path fill="#10537C" d="M36.578 1.816c-.904 1.883-2.953 5.1-1.001 7.738 0 0 1.286 5.457 4.642 6.754 2.48.958 2.254 5.843 2.254 5.843s.62-4.522 2.117-4.587c.177-.01.416.162.677.416.656-5.117.656-16.164-8.69-16.164" mask="url(#d)"/>
                <path fill="#10537C" d="M42.002 21.815s-1.896 6.712-6.945 7.943c-5.055 1.233-3.114-.738-3.114-.738l-.674.023-.95-.04s1.91 1.988-3.14.755c-5.052-1.23-6.952-7.943-6.952-7.943-.673-3.272-1.183-2.13-.82-.198.36 1.933.368 5.666 4.205 8.355 3.116 2.188 6.39 2.346 7.502 2.329 1.115.017 4.387-.141 7.504-2.329 3.836-2.689 3.842-6.422 4.205-8.355.362-1.933-.146-3.074-.82.198" mask="url(#d)"/>
                <path fill="#10537C" d="M26.354 29.5s-1.123-3.935 1.796-3.776c2.916.16 3.15.254 3.1.727-.046.478-.168.578-2.133 0-1.963-.579-1.938.006-1.938 1.658 0 1.65.268 1.562 1.523 1.962 1.247.4-1.523.735-1.523.735l-1.095-1.417" mask="url(#d)"/>
                <path fill="#10537C" d="M35.994 29.5s1.12-3.935-1.797-3.776c-2.916.16-3.154.254-3.103.727.05.478.168.578 2.135 0 1.965-.579 1.94.006 1.94 1.658 0 1.65-.274 1.562-1.524 1.962-1.251.4 1.524.735 1.524.735l1.089-1.417" mask="url(#d)"/>
                <path fill="#8BCEEC" d="M6.865 90.552c.406.068.69.458.622.865l-.459 2.826a.755.755 0 0 1-.865.625.751.751 0 0 1-.622-.866l.453-2.825a.762.762 0 0 1 .871-.625" mask="url(#d)"/>
                <path fill="#8BCEEC" d="M6.38 93.52c.412.068.69.455.623.865l-.459 2.827a.752.752 0 0 1-.861.624.755.755 0 0 1-.627-.866l.458-2.825a.755.755 0 0 1 .866-.624M5.09 90.265a.843.843 0 0 1 .693.961l-.572 3.502a.835.835 0 1 1-1.647-.265l.563-3.505a.843.843 0 0 1 .962-.693" mask="url(#d)"/>
                <path fill="#8BCEEC" d="M4.496 93.927a.843.843 0 0 1 .696.96l-.586 3.597a.843.843 0 0 1-.963.693.838.838 0 0 1-.69-.963l.58-3.594a.84.84 0 0 1 .963-.693M3.294 90.004a.823.823 0 0 1 .674.94l-.582 3.584a.813.813 0 0 1-.938.674.816.816 0 0 1-.677-.937l.579-3.582a.82.82 0 0 1 .944-.679" mask="url(#d)"/>
                <path fill="#8BCEEC" d="M2.684 93.743c.445.074.753.491.677.938l-.484 2.988a.82.82 0 0 1-.937.68.82.82 0 0 1-.677-.942l.483-2.987a.814.814 0 0 1 .938-.677M1.648 89.707c.359.06.607.397.547.76l-.466 2.895a.664.664 0 0 1-.765.546.659.659 0 0 1-.542-.76l.466-2.893a.663.663 0 0 1 .76-.548" mask="url(#d)"/>
                <path fill="#8BCEEC" d="M1.156 92.727c.362.06.606.397.552.76l-.397 2.415a.656.656 0 0 1-.756.547.661.661 0 0 1-.547-.76L.4 93.276c.058-.36.4-.607.756-.548M7.73 88.109a.864.864 0 0 1 1.09.552l1.023 3.117a.867.867 0 0 1-.557 1.09.863.863 0 0 1-1.089-.554L7.18 89.2a.861.861 0 0 1 .55-1.09" mask="url(#d)"/>
                <path fill="#8BCEEC" d="M7.453 91.615s.104-1.395.343-.53c.254.933 1.378-1.341 1.378-1.341s-.573-2.037-1.369-3.86c-.797-1.82-1.197-3.544-1.197-3.544l-3.016-.488s-.728 1.686-1.384 2.845c-.658 1.155-1.422 6.18-1.422 6.18l6.667.738z" mask="url(#d)"/>
                <path fill="#8BCEEC" d="M5.905 85.742c-.95 2.019-.768 3.124-1.833 2.952-1.055-.174-1.077-2.129-1.077-2.129-.378-18.26 2.393-21.925 2.393-21.925.223-16.488 5.026-26.612 5.026-26.612.398-.885 1.783-1.825 2.843-1.652 1.059.171 3.735 2.335 3.563 3.396 0 0-1.836 19.48-5.455 26.094-.917 1.68.883 6.374-5.46 19.876M55.306 90.552a.754.754 0 0 0-.623.865l.456 2.826a.756.756 0 0 0 1.492-.241l-.459-2.825a.757.757 0 0 0-.866-.625" mask="url(#d)"/>
                <path fill="#8BCEEC" d="M55.787 93.52a.754.754 0 0 0-.624.865l.458 2.827c.068.41.455.69.868.624a.756.756 0 0 0 .621-.866l-.459-2.825a.754.754 0 0 0-.864-.624M57.078 90.265a.837.837 0 0 0-.69.961l.568 3.502a.838.838 0 0 0 1.653-.265l-.57-3.505a.841.841 0 0 0-.961-.693" mask="url(#d)"/>
                <path fill="#8BCEEC" d="M57.67 93.927a.838.838 0 0 0-.69.96l.584 3.597a.836.836 0 0 0 .959.693.846.846 0 0 0 .696-.963l-.586-3.594a.84.84 0 0 0-.963-.693M58.876 90.004a.821.821 0 0 0-.677.94l.582 3.584c.07.445.492.748.94.674a.809.809 0 0 0 .673-.937l-.578-3.582a.818.818 0 0 0-.94-.679" mask="url(#d)"/>
                <path fill="#8BCEEC" d="M59.483 93.743a.818.818 0 0 0-.678.938l.483 2.988c.073.448.493.75.944.68a.825.825 0 0 0 .677-.942l-.488-2.987a.815.815 0 0 0-.938-.677M60.518 89.707a.666.666 0 0 0-.547.76l.47 2.895a.66.66 0 0 0 .76.546.664.664 0 0 0 .547-.76l-.47-2.893a.663.663 0 0 0-.76-.548" mask="url(#d)"/>
                <path fill="#8BCEEC" d="M61.01 92.727a.662.662 0 0 0-.548.76l.392 2.415a.66.66 0 1 0 1.303-.212l-.39-2.415a.66.66 0 0 0-.757-.548M54.436 88.109a.861.861 0 0 0-1.089.552l-1.017 3.117a.862.862 0 1 0 1.64.536l1.015-3.115a.858.858 0 0 0-.549-1.09" mask="url(#d)"/>
                <path fill="#8BCEEC" d="M54.714 91.615s-.106-1.395-.34-.53c-.258.933-1.38-1.341-1.38-1.341s.572-2.037 1.367-3.86c.798-1.82 1.197-3.544 1.197-3.544l3.017-.488s.727 1.686 1.383 2.845c.66 1.155 1.421 6.18 1.421 6.18l-6.665.738z" mask="url(#d)"/>
                <path fill="#8BCEEC" d="M56.265 85.742c.95 2.019.77 3.124 1.829 2.952 1.062-.174 1.077-2.129 1.077-2.129.378-18.26-2.392-21.925-2.392-21.925-.224-16.488-5.027-26.612-5.027-26.612-.399-.885-1.784-1.825-2.843-1.652-1.06.171-3.73 2.335-3.562 3.396 0 0 1.834 19.48 5.454 26.094.921 1.68-.882 6.374 5.464 19.876M31.157 32.351l-18.405 4.025s3.046 4.286 3.046 7.671l3.591 37.885c0 3.385 7.098-2.425 11.044-2.425h.724V32.351z" mask="url(#d)"/>
                <path fill="#8BCEEC" d="M31.157 46.832h-.724c-3.946 0-6.359 10.585-6.359 13.97 0 0-7.212 14.298-6.83 25.787.378 11.491 3.798 4.625 7.738 4.625h6.175V46.832z" mask="url(#d)"/>
                <path fill="#8BCEEC" d="M27.039 124.15c-4.368 6.225.09 1.86-2.859 1.86-2.95 0-.95 7.543-4.132-1.86-3.178-9.405-2.85-36.878-2.85-36.878 0-2.95.82-5.34 3.769-5.34 2.947 0 9.647 1.898 9.647 4.848 0 0 .795 31.144-3.575 37.37" mask="url(#d)"/>
                <path fill="#8BCEEC" d="M26.728 155.088c0 2.946.614 2.64-2.335 2.64s-3.595-.347-3.595-3.292c0 0-5.711-22.381-1.018-31.746 3.108-6.2.882-7.177 3.832-7.177 2.945 0 2.217 1.672 3.723 7.56 2.005 7.837-.607 32.015-.607 32.015" mask="url(#d)"/>
                <path fill="#2DABDF" d="M29.925 161.95c0 4.366-3.127 3.592-5.889 3.592-2.763 0-6.843.69-6.846-3.496 0-2.617 3.428-8.371 7.08-8.37 2.76 0 5.655 6.066 5.655 8.273" mask="url(#d)"/>
                <path fill="#8BCEEC" d="M31.056 32.351l18.249 4.025s-2.894 4.286-2.894 7.671l-3.592 37.885c0 3.385-7.095-2.425-11.04-2.425h-.723V32.351z" mask="url(#d)"/>
                <path fill="#8BCEEC" d="M31.056 46.832h.724c3.944 0 6.353 10.585 6.353 13.97 0 0 7.218 14.298 6.834 25.787-.382 11.491-3.798 4.625-7.74 4.625h-6.171V46.832z" mask="url(#d)"/>
                <path fill="#8BCEEC" d="M35.174 124.15c4.368 6.225-.09 1.86 2.859 1.86 2.95 0 .95 7.543 4.13-1.86 3.179-9.405 2.849-36.878 2.849-36.878 0-2.95-.818-5.34-3.769-5.34-2.945 0-9.643 1.898-9.643 4.848 0 0-.8 31.144 3.574 37.37" mask="url(#d)"/>
                <path fill="#8BCEEC" d="M35.346 155.322c0 2.947-.477 2.406 2.472 2.406 2.945 0 3.508-.364 3.508-3.313 0 0 5.935-21.575 1.106-31.726-2.98-6.26-.884-7.176-3.832-7.176-2.947 0-2.215 1.672-3.725 7.56-2.001 7.837.47 32.25.47 32.25" mask="url(#d)"/>
                <path fill="#2DABDF" d="M32.508 161.663c0 4.217 3.019 3.47 5.685 3.47 2.666 0 6.607.665 6.607-3.376 0-2.708-3.28-8.083-6.832-8.081-2.67.001-5.46 5.856-5.46 7.987" mask="url(#d)"/>
                <path fill="#023A5A" d="M44.809 156.58H33.684L31.539 95.6V83.787h14.308z" mask="url(#d)"/>
                <path fill="#023A5A" d="M18.27 156.58h11.125l2.145-60.663v-12.13H17.237z" mask="url(#d)"/>
                <path fill="#8BCEEC" d="M16.748 85.381H46.39v-2.968H16.748z" mask="url(#d)"/>
                <path stroke="#013A59" d="M33.554 84.735c0 .352-.388.636-.867.636h-3.264c-.479 0-.864-.284-.864-.636V82.83c0-.351.385-.636.864-.636h3.264c.479 0 .867.285.867.636v1.904z" mask="url(#d)"/>
                <path fill="#2DABDF" d="M36.02 33.446s10.765 1.606 12.872 2.02c2.107.414 4.025 1.45 5.366 7.065 1.341 5.612 2.402 12.224 2.402 12.224l-9.013 2.919-1.723-8.092 1.008 34.205H31.055v-48.33s3.013-.133 4.965-2.01" mask="url(#d)"/>
                <path fill="#2DABDF" d="M26.093 33.446s-10.767 1.606-12.873 2.02c-2.11.414-4.025 1.45-5.367 7.065-1.342 5.612-2.402 12.224-2.402 12.224l9.012 2.919 1.725-8.092-1.01 34.205h15.878v-48.33s-3.016-.133-4.963-2.01" mask="url(#d)"/>
                <path fill="#10537C" d="M24.503 33.683l1.9-.78s.893 1.264 4.653 1.35v2.123s-4.226-.354-6.553-2.693" mask="url(#d)"/>
                <path fill="#10537C" d="M37.605 33.683l-1.903-.78s-.887 1.264-4.647 1.35v2.123s4.228-.354 6.55-2.693" mask="url(#d)"/>
            </g>
            <g transform="translate(36 44)">
                <mask id="f" fill="#fff">
                    <use xlink:href="#e"/>
                </mask>
                <path fill="#19ADE8" d="M20.88 23.845c0-3.54-2.644-6.761-6.581-8.015-.606-.193-1.457-.444-2.36-.71-1.278-.376-2.728-.802-3.537-1.088a3.126 3.126 0 0 1-2.085-2.939c0-1.819 1.729-3.297 3.852-3.297 2.123 0 3.85 1.478 3.85 3.297h5.862c0-3.606-2.724-6.678-6.51-7.808V0H7.509v3.14C3.442 4.126.456 7.316.456 11.092c0 3.353 2.234 6.308 5.693 7.531.973.343 2.446.777 3.87 1.197.849.248 1.648.484 2.218.666 1.664.528 2.782 1.879 2.782 3.358 0 2.012-2.054 3.65-4.58 3.65-2.524 0-4.577-1.638-4.577-3.65H0c0 3.915 3.175 7.227 7.51 8.275v3.377h5.86V32.12c4.336-1.049 7.51-4.36 7.51-8.275" mask="url(#f)"/>
            </g>
            <g transform="translate(209.308 63.553)">
                <mask id="h" fill="#fff">
                    <use xlink:href="#g"/>
                </mask>
                <path fill="#19ADE8" d="M15.66 18.234c0-2.706-1.983-5.17-4.936-6.129a92.734 92.734 0 0 0-1.77-.543c-.958-.287-2.046-.613-2.653-.832a2.388 2.388 0 0 1-1.563-2.247c0-1.39 1.296-2.522 2.889-2.522 1.592 0 2.887 1.131 2.887 2.522h4.396c0-2.758-2.042-5.107-4.882-5.97V0H5.632v2.4c-3.05.756-5.29 3.195-5.29 6.083 0 2.564 1.676 4.824 4.27 5.759.73.262 1.834.594 2.902.915.637.19 1.236.37 1.664.51 1.248.403 2.086 1.436 2.086 2.567 0 1.539-1.54 2.791-3.434 2.791-1.894 0-3.434-1.252-3.434-2.79H0c0 2.993 2.382 5.526 5.632 6.328v2.582h4.396v-2.583c3.251-.802 5.632-3.334 5.632-6.328" mask="url(#h)"/>
            </g>
            <g transform="translate(58.969 24.925)">
                <mask id="j" fill="#fff">
                    <use xlink:href="#i"/>
                </mask>
                <path fill="#19ADE8" d="M11.484 13.325c0-1.978-1.454-3.778-3.62-4.479a68.181 68.181 0 0 0-1.298-.397c-.703-.21-1.5-.448-1.945-.608A1.745 1.745 0 0 1 3.474 6.2c0-1.016.951-1.843 2.12-1.843 1.167 0 2.116.827 2.116 1.843h3.224c0-2.015-1.498-3.732-3.58-4.363V0H4.13v1.754C1.893 2.306.25 4.09.25 6.2c0 1.874 1.23 3.525 3.132 4.209.535.191 1.345.434 2.128.668.467.14.907.27 1.22.372.916.296 1.53 1.05 1.53 1.877 0 1.124-1.13 2.04-2.518 2.04-1.389 0-2.518-.916-2.518-2.04H0c0 2.188 1.747 4.039 4.13 4.625v1.886h3.224V17.95c2.384-.586 4.13-2.436 4.13-4.624" mask="url(#j)"/>
            </g>
            <g transform="translate(200.956 102.182)">
                <mask id="l" fill="#fff">
                    <use xlink:href="#k"/>
                </mask>
                <path fill="#19ADE8" d="M11.484 13.325c0-1.978-1.454-3.778-3.62-4.479a68.181 68.181 0 0 0-1.298-.397c-.703-.21-1.5-.448-1.945-.608A1.745 1.745 0 0 1 3.474 6.2c0-1.016.951-1.843 2.12-1.843 1.167 0 2.116.827 2.116 1.843h3.224c0-2.015-1.498-3.732-3.58-4.363V0H4.13v1.754C1.893 2.306.25 4.09.25 6.2c0 1.874 1.23 3.525 3.132 4.209.535.191 1.345.434 2.128.668.467.14.907.27 1.22.372.916.296 1.53 1.05 1.53 1.877 0 1.124-1.13 2.04-2.518 2.04-1.389 0-2.518-.916-2.518-2.04H0c0 2.188 1.747 4.039 4.13 4.625v1.886h3.224V17.95c2.384-.586 4.13-2.436 4.13-4.624" mask="url(#l)"/>
            </g>
        </g>
    </g>
</svg>
