<svg xmlns="http://www.w3.org/2000/svg" xmlns:xlink="http://www.w3.org/1999/xlink" width="164" height="120" viewBox="0 0 164 120">
    <defs>
        <path id="a" d="M0 75.864h88.162V.022H0z"/>
    </defs>
    <g fill="none" fill-rule="evenodd">
        <path fill="#FFF" d="M49.567 47.83a34.799 34.799 0 0 0-14.505-3.154C15.698 44.676 0 60.433 0 79.876c0 16.957 11.948 31.112 27.853 34.45v-9.774C17.221 101.417 9.43 91.55 9.43 79.875c0-14.19 11.499-25.734 25.633-25.734 3.686 0 7.253.776 10.6 2.305l11.14 5.09 2.06-12.113C62.798 26.27 82.643 9.465 106.047 9.465c26.403 0 47.883 21.565 47.883 48.071 0 14.453-6.395 27.426-16.483 36.246v11.85c15.59-10.291 25.911-28.002 25.911-48.096C163.358 25.811 137.648 0 106.047 0c-28.306 0-51.87 20.712-56.48 47.83z"/>
        <path fill="#19ADE8" d="M104.763 44L61.412 57.507v59.2h16.833v-14.479h9.685v14.48h16.833V44zm-13.52 27.946h9.684v-9.704h-9.685v9.704zm-12.998 0h9.685v-9.704h-9.685v9.704zm-12.998 0h9.685v-9.704h-9.685v9.704zm25.995 12.609h9.685V74.85h-9.685v9.704zm-12.997 0h9.685V74.85h-9.685v9.704zm-12.998 0h9.685V74.85h-9.685v9.704zm25.995 12.608h9.685V87.46h-9.685v9.703zm-12.997 0h9.685V87.46h-9.685v9.703zm-12.998 0h9.685V87.46h-9.685v9.703z"/>
        <path fill="#00395A" d="M39 119.864h88.175v-3.157H39z"/>
        <g transform="translate(39 44)">
            <path fill="#00395A" d="M0 57.81a5.65 5.65 0 0 1 5.647-5.653 5.65 5.65 0 0 1 5.647 5.653 5.65 5.65 0 0 1-5.647 5.652A5.65 5.65 0 0 1 0 57.81"/>
            <path fill="#00395A" d="M7.59 57.81a5.65 5.65 0 0 1 5.647-5.653 5.65 5.65 0 0 1 5.647 5.653 5.65 5.65 0 0 1-5.647 5.652A5.65 5.65 0 0 1 7.59 57.81"/>
            <path fill="#00395A" d="M3.613 52.522a5.65 5.65 0 0 1 5.647-5.653 5.65 5.65 0 0 1 5.647 5.653 5.65 5.65 0 0 1-5.647 5.652 5.65 5.65 0 0 1-5.647-5.652"/>
            <mask id="b" fill="#fff">
                <use xlink:href="#a"/>
            </mask>
            <path fill="#00395A" d="M8.577 72.732h1.366v-18.54H8.577zM69.278 57.81a5.65 5.65 0 0 1 5.647-5.653 5.65 5.65 0 0 1 5.647 5.653 5.65 5.65 0 0 1-5.647 5.652 5.65 5.65 0 0 1-5.647-5.652" mask="url(#b)"/>
            <path fill="#00395A" d="M76.868 57.81a5.65 5.65 0 0 1 5.647-5.653 5.65 5.65 0 0 1 5.647 5.653 5.65 5.65 0 0 1-5.647 5.652 5.65 5.65 0 0 1-5.647-5.652" mask="url(#b)"/>
            <path fill="#00395A" d="M72.891 52.522a5.65 5.65 0 0 1 5.647-5.653 5.65 5.65 0 0 1 5.647 5.653 5.65 5.65 0 0 1-5.647 5.652 5.65 5.65 0 0 1-5.647-5.652" mask="url(#b)"/>
            <path fill="#00395A" d="M77.855 72.732h1.366v-18.54h-1.366z" mask="url(#b)"/>
        </g>
    </g>
</svg>
