<svg xmlns="http://www.w3.org/2000/svg" xmlns:xlink="http://www.w3.org/1999/xlink" width="1139" height="327" viewBox="0 0 1139 327">
    <defs>
        <linearGradient id="a" x1="0%" y1="50%" y2="50%">
            <stop offset="3.213%" stop-color="#E9F7FF"/>
            <stop offset="100%" stop-color="#19ADE8"/>
        </linearGradient>
        <path id="b" d="M0 101.751h67.44V0H0z"/>
    </defs>
    <g fill="none" fill-rule="evenodd">
        <text fill="#00395A" font-family="WalkwayExpandBlack, Walkway Expand Black" font-size="50" font-weight="700">
            <tspan x="945.175" y="275">TDA</tspan>
        </text>
        <text fill="#19ADE8" font-family="BlairMdITCTTMedium, BlairMdITC TT" font-size="26" font-weight="400">
            <tspan x="925.463" y="306.936">SCORES</tspan>
        </text>
        <path fill="#FFF" d="M956.498 105.98a55.648 55.648 0 0 0-23.264-5.077c-31.058 0-56.234 25.36-56.234 56.651 0 27.292 19.163 50.074 44.672 55.446v-15.73c-17.052-5.046-29.549-20.926-29.549-39.716 0-22.837 18.442-41.418 41.11-41.418a40.519 40.519 0 0 1 17.002 3.71l17.868 8.194 3.303-19.497c6.312-37.263 38.14-64.31 75.676-64.31 42.346 0 76.797 34.707 76.797 77.368 0 23.26-10.256 44.14-26.436 58.335v19.073c25.004-16.564 41.557-45.069 41.557-77.408C1139 70.54 1097.766 29 1047.082 29c-45.397 0-83.19 33.335-90.584 76.98z"/>
        <g transform="translate(959 108)">
            <ellipse cx="49.5" cy="107.1" fill="#00395A" rx="49.5" ry="9.9"/>
            <path fill="#19ADE8" d="M48.869 0C29.837 0 12.6 15.313 12.6 34.209 12.6 53.1 28.327 75.654 48.869 108 69.41 75.654 85.137 53.1 85.137 34.209 85.137 15.313 67.905 0 48.87 0zm0 49.97c-7.568 0-13.702-6.134-13.702-13.701 0-7.568 6.134-13.702 13.702-13.702 7.567 0 13.701 6.134 13.701 13.702 0 7.567-6.134 13.701-13.701 13.701z"/>
        </g>
        <path fill="url(#a)" fill-rule="nonzero" d="M135.6 9.69L118.6 0v7.2H.781v5.6H118.6V20z" transform="translate(709 170)"/>
        <path fill="url(#a)" fill-rule="nonzero" d="M326.6 9.69L309.6 0v7.2H.965v5.6H309.6V20z" opacity=".3" transform="translate(70 170)"/>
        <path fill="url(#a)" fill-rule="nonzero" d="M181.6 9.69L164.6 0v7.2L.72 5.561v5.6L164.6 12.8V20z" opacity=".3" transform="rotate(8 -667.995 1647.476)"/>
        <path fill="url(#a)" fill-rule="nonzero" d="M135.6 9.69L118.6 0v7.2H.504v5.6H118.6V20z" opacity=".3" transform="rotate(22 8.843 787.088)"/>
        <path fill="url(#a)" fill-rule="nonzero" d="M109.6 9.69L92.6 0v7.2L.916 10.577v5.6L92.6 12.8V20z" opacity=".3" transform="scale(1 -1) rotate(27 801.994 516.9)"/>
        <path fill="url(#a)" fill-rule="nonzero" d="M180.6 9.69L163.6 0v7.2L0 13.234v5.6L163.6 12.8V20z" opacity=".3" transform="scale(1 -1) rotate(9 1726.187 1296.878)"/>
        <g transform="translate(.205 123)">
            <path fill="#023A5A" d="M54.62 7.817c10.203.017 7.448 11.58 7.448 11.58 0 .186-.883 7.943-7.078 8.299-.102.01-.21.017-.318.017-.02 0-.04-.003-.061-.003-.02 0-.041.003-.062.003-.11 0-.215-.006-.317-.017-6.199-.356-7.08-8.113-7.08-8.3 0 0-2.756-11.562 7.446-11.58v-.001l.013.002c.002 0 .004-.002.01-.002v.002z"/>
            <path fill="#10537C" d="M62.07 19.11l-7.45-1.8v-.005l-.009.003-.013-.003v.004l-7.449 1.802s.971 7.889-1.755 9.618H63.826c-2.728-1.73-1.757-9.618-1.757-9.618"/>
            <mask id="c" fill="#fff">
                <use xlink:href="#b"/>
            </mask>
            <path fill="#8BCEEC" d="M52.656 27.13h3.952v-4.352h-3.952z" mask="url(#c)"/>
            <path fill="#8BCEEC" d="M55.827 8.619h-2.25c-7.625 0-5.73 10.56-5.73 10.56 0 .175 1.943 5.776 6.853 5.776 4.913 0 6.86-5.6 6.86-5.775 0 0 1.127-10.561-5.733-10.561" mask="url(#c)"/>
            <path fill="#8BCEEC" d="M48.648 18.256c.143.885-.658 2.39-1.018 1.944-.445-.552-.755-.748-1.016-1.604-.35-1.134.565-1.914 1.01-1.56.678.535.878.336 1.024 1.22M60.617 18.256c-.146.885.658 2.39 1.018 1.944.445-.552.751-.748 1.015-1.604.35-1.134-.564-1.914-1.014-1.56-.675.535-.873.336-1.019 1.22" mask="url(#c)"/>
            <path fill="#10537C" d="M46.852 17.223c1.01-.971 1.396 1.175 1.396 1.175s.159-2.113 3.081-2.336c4.43-.337 6.262-4.496 6.262-4.496s.193-2.185.014-3.327c-.996-1.464-11.69-3.085-10.753 8.984" mask="url(#c)"/>
            <path fill="#10537C" d="M57.605 8.24c-.497 1.04-1.62 2.822-.551 4.279 0 0 .71 3.018 2.546 3.737 1.36.53 1.414 2.142 1.414 2.142s.161-1.413.984-1.448c.096-.004.228.088.371.232.358-2.831.358-8.943-4.764-8.943" mask="url(#c)"/>
            <path fill="#8BCEEC" d="M54.346 25.297l-6.771 1.32s1.97.82 1.97 2.898l1.923 19.744c0 2.078.035 3.763 2.436 3.763h.442V25.297z" mask="url(#c)"/>
            <path fill="#8BCEEC" d="M54.346 32.944h-.442c-2.401 0-3.87 6.504-3.87 8.582 0 0-3.26 8.788-3.029 15.849.231 7.06 1.182 2.84 3.584 2.84h3.757v-27.27zM44.736 56.666c.21.033.352.231.317.443l-.232 1.448a.384.384 0 0 1-.44.32.387.387 0 0 1-.317-.444l.235-1.449a.38.38 0 0 1 .437-.318" mask="url(#c)"/>
            <path fill="#8BCEEC" d="M44.493 58.186a.384.384 0 0 1 .315.444l-.23 1.448a.384.384 0 0 1-.44.32.387.387 0 0 1-.32-.445l.235-1.446a.383.383 0 0 1 .44-.321M43.834 56.517a.43.43 0 0 1 .354.493l-.29 1.795a.423.423 0 1 1-.836-.137l.286-1.795a.428.428 0 0 1 .486-.356" mask="url(#c)"/>
            <path fill="#8BCEEC" d="M43.535 58.394c.233.038.39.258.352.492l-.295 1.844a.427.427 0 0 1-.49.353.433.433 0 0 1-.354-.491l.3-1.843a.423.423 0 0 1 .487-.355M42.923 56.384c.228.037.38.253.346.482l-.297 1.835a.414.414 0 1 1-.82-.133l.295-1.837a.415.415 0 0 1 .476-.347" mask="url(#c)"/>
            <path fill="#8BCEEC" d="M42.615 58.3a.42.42 0 0 1 .345.481l-.247 1.532a.416.416 0 1 1-.82-.135l.246-1.531a.414.414 0 0 1 .476-.348M42.089 56.232c.184.03.31.204.278.39l-.238 1.483a.337.337 0 0 1-.387.28.339.339 0 0 1-.276-.389l.237-1.484a.336.336 0 0 1 .386-.28" mask="url(#c)"/>
            <path fill="#8BCEEC" d="M41.84 57.78a.34.34 0 0 1 .279.388l-.2 1.238a.335.335 0 1 1-.662-.109l.198-1.237a.335.335 0 0 1 .385-.28M45.18 55.412a.439.439 0 0 1 .552.284l.518 1.595a.445.445 0 0 1-.281.56.438.438 0 0 1-.553-.283l-.517-1.597a.443.443 0 0 1 .28-.559" mask="url(#c)"/>
            <path fill="#8BCEEC" d="M45.036 57.21s.055-.715.174-.271c.131.477.702-.69.702-.69s-.292-1.044-.694-1.976c-.405-.932-.61-1.816-.61-1.816l-1.53-.25s-.37.865-.705 1.456c-.336.592-.72 3.168-.72 3.168l3.383.379z" mask="url(#c)"/>
            <path fill="#8BCEEC" d="M44.37 54.272c-.379 1.317-.466 1.92-1.11 1.815-.647-.107-.66-1.309-.66-1.309 1.102-11.685 4.278-27.258 4.278-27.258a1.184 1.184 0 0 1 1.357-.988c.646.105 2.272 1.436 2.17 2.088 0 0-3.668 17.495-6.035 25.652" mask="url(#c)"/>
            <path fill="#2DABDF" d="M52.208 99.94c0 1.988-.75 1.585-1.995 1.585-1.247 0-2.185.102-2.185-1.803 0-1.822 1.045-3.6 2.29-3.6 1.247 0 1.89 2.814 1.89 3.818" mask="url(#c)"/>
            <path fill="#8BCEEC" d="M51.99 80.453c-2.661 3.825.51 1.142-1.285 1.142-1.793 0 .479 4.636-1.458-1.142-1.937-5.779-2.27-22.66-2.27-22.66 0-1.812.5-3.28 2.295-3.28 1.796 0 4.745 1.166 4.745 2.976 0 0 .636 19.138-2.026 22.964" mask="url(#c)"/>
            <path fill="#8BCEEC" d="M51.169 96.118c0 1.812 1.687 3.604-1.051 3.59-2.288.199-1.348-1.817-1.348-3.629 0 0-1.315-11.707.316-16.523 1.364-4.032-1.13-4.41.664-4.41s1.503 1.028 2.42 4.644c1.223 4.818-1.001 16.328-1.001 16.328" mask="url(#c)"/>
            <path fill="#2DABDF" d="M58.481 101.525c1.247 0 2.186.102 2.186-1.803 0-1.822-1.045-3.6-2.294-3.6-1.248 0-1.886 2.814-1.886 3.818 0 1.988.746 1.585 1.994 1.585z" mask="url(#c)"/>
            <path fill="#8BCEEC" d="M56.703 80.453c2.659 3.825-.513 1.142 1.283 1.142 1.796 0-.476 4.636 1.457-1.142 1.938-5.779 2.27-22.66 2.27-22.66 0-1.812-.497-3.28-2.295-3.28-1.793 0-4.741 1.166-4.741 2.976 0 0-.636 19.138 2.026 22.964" mask="url(#c)"/>
            <path fill="#8BCEEC" d="M57.524 96.118c0 1.812-1.69 3.604 1.053 3.59 2.283.199 1.344-1.817 1.344-3.629 0 0 1.319-11.707-.313-16.523-1.364-4.032 1.13-4.41-.665-4.41-1.797 0-1.502 1.028-2.422 4.644-1.221 4.818 1.003 16.328 1.003 16.328M54.346 25.297l6.775 1.322s-1.972.819-1.972 2.896L57.226 49.74c0 2.079-.038 3.282-2.439 3.282h-.44V25.297z" mask="url(#c)"/>
            <path fill="#8BCEEC" d="M54.346 32.944h.441c2.4 0 3.87 6.504 3.87 8.582 0 0 3.032 7.85 3.032 15.849 0 7.998-1.182 2.84-3.585 2.84h-3.758v-27.27zM63.954 56.666a.386.386 0 0 0-.317.443l.236 1.448c.033.21.228.353.437.32a.388.388 0 0 0 .318-.444l-.233-1.449a.382.382 0 0 0-.44-.318" mask="url(#c)"/>
            <path fill="#8BCEEC" d="M64.2 58.186a.386.386 0 0 0-.317.444l.233 1.448a.383.383 0 1 0 .756-.125l-.231-1.446a.387.387 0 0 0-.441-.321M64.856 56.517a.431.431 0 0 0-.353.493l.29 1.795a.425.425 0 1 0 .839-.137l-.289-1.795a.427.427 0 0 0-.487-.356" mask="url(#c)"/>
            <path fill="#8BCEEC" d="M65.158 58.394a.43.43 0 0 0-.353.492l.297 1.844a.424.424 0 1 0 .838-.138l-.294-1.843a.426.426 0 0 0-.488-.355M65.768 56.384a.42.42 0 0 0-.343.482l.294 1.835a.417.417 0 0 0 .823-.133l-.295-1.837a.418.418 0 0 0-.48-.347" mask="url(#c)"/>
            <path fill="#8BCEEC" d="M66.075 58.3a.42.42 0 0 0-.342.481l.245 1.532c.04.228.252.384.477.347a.421.421 0 0 0 .345-.482l-.245-1.531a.416.416 0 0 0-.48-.348M66.604 56.232a.338.338 0 0 0-.278.39l.24 1.483c.026.185.198.31.383.28a.341.341 0 0 0 .28-.389l-.238-1.484a.339.339 0 0 0-.387-.28" mask="url(#c)"/>
            <path fill="#8BCEEC" d="M66.851 57.78a.338.338 0 0 0-.277.388l.198 1.238c.03.185.203.31.387.28a.338.338 0 0 0 .277-.389l-.198-1.237a.338.338 0 0 0-.387-.28M63.514 55.412a.436.436 0 0 0-.552.284l-.519 1.595a.44.44 0 0 0 .835.276l.515-1.596a.444.444 0 0 0-.279-.559" mask="url(#c)"/>
            <path fill="#8BCEEC" d="M63.654 57.21s-.054-.715-.174-.271c-.127.477-.7-.69-.7-.69s.292-1.044.696-1.976c.404-.932.606-1.816.606-1.816l1.535-.25s.368.865.704 1.456c.333.592.72 3.168.72 3.168l-3.387.379z" mask="url(#c)"/>
            <path fill="#8BCEEC" d="M64.318 54.272c.385 1.317.472 1.92 1.117 1.815.646-.107.656-1.309.656-1.309-1.1-11.685-4.276-27.258-4.276-27.258a1.185 1.185 0 0 0-1.36-.988c-.645.105-2.272 1.436-2.166 2.088 0 0 3.665 17.495 6.03 25.652" mask="url(#c)"/>
            <path fill="#023A5A" d="M61.055 45.955c-1.2-4.165-1.87-5.647-1.755-8.39.118-2.894.585-4.62.585-4.62s-.27-1.835-.248-2.661c.059-2.69.55-4.053.55-4.053l-.904-.197c-1.253 3.825-4.672 3.627-4.672 3.627s-3.424.198-4.673-3.627l-.904.197s.49 1.363.552 4.053c.017.826-.252 2.66-.252 2.66s.467 1.727.587 4.62c.113 2.744-.707 4.185-1.758 8.391-1.559 6.252-2.42 13.626-2.79 20.172-.37 6.546-.813 11.724-.813 11.724h20.1s-.444-5.178-.813-11.724c-.369-6.546-1.067-14.184-2.792-20.172z" mask="url(#c)"/>
            <path fill="#8BCEEC" d="M18.962.647L18.96.646h-.023C7.604.663 10.666 11.9 10.666 11.9c0 .18.979 7.718 7.863 8.064.114.01.23.015.351.015h.138c.124 0 .239-.005.354-.015 6.882-.346 7.861-7.883 7.861-8.064 0 0 3.06-11.237-8.27-11.252" mask="url(#c)"/>
            <path fill="#8BCEEC" d="M20.302 1.536h-2.5c-8.473 0-6.368 11.734-6.368 11.734 0 .194 2.161 6.412 7.618 6.412 5.457 0 7.618-6.218 7.618-6.412 0 0 1.252-11.734-6.368-11.734" mask="url(#c)"/>
            <path fill="#8BCEEC" d="M16.52 21.93h4.86v-4.492h-4.86zM12.326 12.244c.161.982-.73 2.654-1.13 2.16-.497-.614-.838-.832-1.13-1.784-.387-1.258.628-2.126 1.125-1.733.752.595.973.374 1.135 1.357M25.625 12.244c-.163.982.727 2.654 1.129 2.16.494-.614.835-.832 1.13-1.784.384-1.258-.628-2.126-1.127-1.733-.753.595-.973.374-1.132 1.357" mask="url(#c)"/>
            <path fill="#10537C" d="M10.333 11.095c1.123-1.077 1.621 2.292 1.621 2.292s.106-3.332 3.35-3.581c4.921-.375 6.958-4.993 6.958-4.993s.214-2.428.015-3.697C21.17-.511 9.29-2.312 10.333 11.096" mask="url(#c)"/>
            <path fill="#10537C" d="M22.277 1.116c-.551 1.157-1.799 3.134-.61 4.755 0 0 .784 3.353 2.827 4.15 1.51.588 1.373 3.59 1.373 3.59s.377-2.778 1.29-2.819c.107-.005.253.1.411.256.4-3.144.4-9.932-5.291-9.932" mask="url(#c)"/>
            <path fill="#10537C" d="M25.58 13.404s-1.154 4.125-4.23 4.881c-3.078.757-1.896-.454-1.896-.454l-.41.015-.58-.025s1.164 1.221-1.911.464c-3.077-.756-4.235-4.88-4.235-4.88-.41-2.011-.72-1.31-.5-.122.22 1.187.226 3.482 2.562 5.134 1.898 1.344 3.892 1.441 4.569 1.43.68.011 2.672-.086 4.57-1.43 2.336-1.652 2.34-3.947 2.561-5.134.22-1.188-.09-1.89-.5.121" mask="url(#c)"/>
            <path fill="#10537C" d="M16.05 18.127s-.684-2.419 1.094-2.32c1.776.098 1.919.155 1.888.446-.028.294-.102.355-1.3 0-1.195-.355-1.18.004-1.18 1.019 0 1.013.164.96.928 1.205.76.246-.928.452-.928.452l-.666-.87" mask="url(#c)"/>
            <path fill="#10537C" d="M21.921 18.127s.682-2.419-1.094-2.32c-1.776.098-1.921.155-1.89.446.03.294.102.355 1.3 0 1.197-.355 1.182.004 1.182 1.019 0 1.013-.167.96-.929 1.205-.762.246.929.452.929.452l.663-.87" mask="url(#c)"/>
            <path fill="#8BCEEC" d="M4.181 55.64c.247.042.42.282.379.532l-.28 1.737a.46.46 0 0 1-.526.383.461.461 0 0 1-.38-.532l.276-1.736a.464.464 0 0 1 .531-.383" mask="url(#c)"/>
            <path fill="#8BCEEC" d="M3.886 57.465c.25.041.42.279.379.53l-.28 1.738a.459.459 0 1 1-.906-.149l.28-1.736a.46.46 0 0 1 .527-.383M3.1 55.464c.276.047.465.31.422.59l-.348 2.152a.51.51 0 1 1-1.003-.163l.342-2.153a.514.514 0 0 1 .587-.426" mask="url(#c)"/>
            <path fill="#8BCEEC" d="M2.738 57.714c.28.046.466.31.424.59l-.357 2.21a.514.514 0 0 1-.586.426.514.514 0 0 1-.42-.592l.353-2.208a.513.513 0 0 1 .586-.426M2.006 55.304c.27.045.453.304.41.577l-.354 2.202a.496.496 0 0 1-.571.414.501.501 0 0 1-.412-.575l.352-2.201a.5.5 0 0 1 .575-.417" mask="url(#c)"/>
            <path fill="#8BCEEC" d="M1.635 57.601a.5.5 0 0 1 .412.577l-.295 1.835a.5.5 0 0 1-.57.418.503.503 0 0 1-.413-.579l.294-1.835a.497.497 0 0 1 .572-.416M1.004 55.121c.218.037.37.244.333.468l-.284 1.778a.405.405 0 0 1-.466.336.404.404 0 0 1-.33-.468l.284-1.777a.404.404 0 0 1 .463-.337" mask="url(#c)"/>
            <path fill="#8BCEEC" d="M.704 56.977a.41.41 0 0 1 .336.467L.8 58.928a.4.4 0 0 1-.461.336.406.406 0 0 1-.333-.467l.238-1.484a.404.404 0 0 1 .46-.336M4.707 54.14a.525.525 0 0 1 .664.339l.623 1.915a.534.534 0 0 1-.339.67.525.525 0 0 1-.663-.34l-.62-1.915a.53.53 0 0 1 .335-.67" mask="url(#c)"/>
            <path fill="#8BCEEC" d="M4.54 56.293s.063-.857.208-.325c.154.573.839-.824.839-.824s-.349-1.252-.834-2.372c-.485-1.118-.729-2.178-.729-2.178l-1.836-.3s-.444 1.037-.844 1.749c-.4.71-.865 3.797-.865 3.797l4.06.453z" mask="url(#c)"/>
            <path fill="#8BCEEC" d="M3.596 52.685c-.578 1.24-.467 1.92-1.116 1.814-.643-.107-.656-1.308-.656-1.308-.23-11.22 1.457-13.473 1.457-13.473.136-10.13 3.061-16.351 3.061-16.351.243-.544 1.086-1.122 1.732-1.016.645.106 2.274 1.435 2.17 2.087 0 0-1.118 11.97-3.323 16.034-.558 1.032.539 3.917-3.325 12.213M33.683 55.64a.463.463 0 0 0-.38.532l.278 1.737a.46.46 0 0 0 .529.383.465.465 0 0 0 .38-.532l-.28-1.736a.461.461 0 0 0-.527-.383" mask="url(#c)"/>
            <path fill="#8BCEEC" d="M33.975 57.465a.463.463 0 0 0-.38.53l.28 1.738a.462.462 0 0 0 .528.383.464.464 0 0 0 .378-.532l-.28-1.736a.46.46 0 0 0-.526-.383M34.761 55.464a.514.514 0 0 0-.42.59l.346 2.152c.043.28.306.472.583.426a.514.514 0 0 0 .424-.589l-.347-2.153a.513.513 0 0 0-.586-.426" mask="url(#c)"/>
            <path fill="#8BCEEC" d="M35.122 57.714a.514.514 0 0 0-.42.59l.356 2.21a.51.51 0 0 0 .584.426.519.519 0 0 0 .423-.592l-.357-2.208a.513.513 0 0 0-.586-.426M35.857 55.304a.504.504 0 0 0-.412.577l.354 2.202c.043.274.3.46.572.414a.497.497 0 0 0 .41-.575l-.352-2.201a.499.499 0 0 0-.572-.417" mask="url(#c)"/>
            <path fill="#8BCEEC" d="M36.226 57.601a.502.502 0 0 0-.413.577l.295 1.835c.044.276.3.461.574.418a.506.506 0 0 0 .413-.579l-.297-1.835a.497.497 0 0 0-.572-.416M36.856 55.121a.41.41 0 0 0-.332.468l.286 1.778a.402.402 0 0 0 .463.336.407.407 0 0 0 .333-.468l-.286-1.777a.404.404 0 0 0-.464-.337" mask="url(#c)"/>
            <path fill="#8BCEEC" d="M37.156 56.977a.406.406 0 0 0-.334.467l.24 1.484a.402.402 0 1 0 .793-.13l-.237-1.485a.402.402 0 0 0-.462-.336M33.153 54.14a.524.524 0 0 0-.663.339l-.62 1.915a.526.526 0 0 0 .999.33l.618-1.915a.528.528 0 0 0-.334-.67" mask="url(#c)"/>
            <path fill="#8BCEEC" d="M33.322 56.293s-.065-.857-.207-.325c-.157.573-.841-.824-.841-.824s.349-1.252.833-2.372c.486-1.118.729-2.178.729-2.178l1.837-.3s.443 1.037.843 1.749c.401.71.865 3.797.865 3.797l-4.06.453z" mask="url(#c)"/>
            <path fill="#8BCEEC" d="M34.266 52.685c.58 1.24.469 1.92 1.114 1.814.647-.107.656-1.308.656-1.308.23-11.22-1.456-13.473-1.456-13.473-.137-10.13-3.062-16.351-3.062-16.351-.243-.544-1.086-1.122-1.731-1.016-.646.106-2.272 1.435-2.17 2.087 0 0 1.117 11.97 3.322 16.034.561 1.032-.538 3.917 3.327 12.213M18.975 19.878L7.766 22.352s1.855 2.633 1.855 4.713l2.188 23.279c0 2.08 4.322-1.49 6.726-1.49h.44V19.878z" mask="url(#c)"/>
            <path fill="#8BCEEC" d="M18.975 28.776h-.44c-2.404 0-3.873 6.504-3.873 8.584 0 0-4.393 8.786-4.16 15.846.23 7.06 2.313 2.841 4.713 2.841h3.76V28.776z" mask="url(#c)"/>
            <path fill="#8BCEEC" d="M16.467 76.285c-2.66 3.825.055 1.143-1.74 1.143-1.797 0-.58 4.635-2.517-1.143-1.936-5.78-1.736-22.66-1.736-22.66 0-1.813.5-3.281 2.295-3.281s5.876 1.166 5.876 2.978c0 0 .483 19.138-2.178 22.963" mask="url(#c)"/>
            <path fill="#8BCEEC" d="M16.278 95.295c0 1.81.374 1.622-1.422 1.622-1.796 0-2.19-.213-2.19-2.023 0 0-3.478-13.752-.62-19.506 1.893-3.81.538-4.41 2.334-4.41 1.794 0 1.35 1.027 2.268 4.645 1.22 4.816-.37 19.672-.37 19.672" mask="url(#c)"/>
            <path fill="#2DABDF" d="M18.225 99.51c0 2.684-1.904 2.209-3.586 2.209-1.684 0-4.168.424-4.17-2.149 0-1.608 2.088-5.143 4.311-5.143 1.682 0 3.445 3.728 3.445 5.084" mask="url(#c)"/>
            <path fill="#8BCEEC" d="M18.914 19.878l11.113 2.474s-1.762 2.633-1.762 4.713l-2.187 23.279c0 2.08-4.321-1.49-6.724-1.49h-.44V19.878z" mask="url(#c)"/>
            <path fill="#8BCEEC" d="M18.914 28.776h.44c2.403 0 3.87 6.504 3.87 8.584 0 0 4.396 8.786 4.162 15.846-.233 7.06-2.313 2.841-4.715 2.841h-3.757V28.776z" mask="url(#c)"/>
            <path fill="#8BCEEC" d="M21.422 76.285c2.66 3.825-.055 1.143 1.74 1.143 1.797 0 .58 4.635 2.516-1.143 1.936-5.78 1.735-22.66 1.735-22.66 0-1.813-.498-3.281-2.295-3.281-1.794 0-5.873 1.166-5.873 2.978 0 0-.487 19.138 2.177 22.963" mask="url(#c)"/>
            <path fill="#8BCEEC" d="M21.526 95.439c0 1.81-.29 1.478 1.506 1.478 1.793 0 2.136-.224 2.136-2.035 0 0 3.615-13.257.674-19.495-1.815-3.846-.538-4.409-2.334-4.409-1.794 0-1.35 1.027-2.268 4.645-1.22 4.816.286 19.816.286 19.816" mask="url(#c)"/>
            <path fill="#2DABDF" d="M19.798 99.335c0 2.591 1.838 2.132 3.463 2.132 1.623 0 4.023.409 4.023-2.074 0-1.664-1.998-4.967-4.16-4.966-1.627.001-3.326 3.599-3.326 4.908" mask="url(#c)"/>
            <path fill="#023A5A" d="M27.29 96.212h-6.776l-1.306-37.47v-7.258h8.714z" mask="url(#c)"/>
            <path fill="#023A5A" d="M11.127 96.212h6.775l1.306-37.275v-7.453h-8.71z" mask="url(#c)"/>
            <path fill="#8BCEEC" d="M10.2 52.463h18.052V50.64H10.2z" mask="url(#c)"/>
            <path stroke="#013A59" d="M20.435 52.066c0 .216-.236.39-.528.39h-1.988c-.291 0-.526-.174-.526-.39v-1.17c0-.216.235-.39.526-.39h1.988c.292 0 .528.174.528.39v1.17z" mask="url(#c)"/>
            <path fill="#2DABDF" d="M21.937 20.551s6.556.987 7.84 1.241c1.283.255 2.45.892 3.267 4.342.817 3.448 1.463 7.51 1.463 7.51l-5.49 1.794-1.049-4.972.614 21.017h-9.669V21.787s1.835-.082 3.024-1.236" mask="url(#c)"/>
            <path fill="#2DABDF" d="M15.891 20.551s-6.557.987-7.84 1.241c-1.285.255-2.45.892-3.268 4.342-.818 3.448-1.463 7.51-1.463 7.51l5.488 1.794 1.05-4.972-.614 21.017h9.67V21.787s-1.837-.082-3.023-1.236" mask="url(#c)"/>
            <path fill="#10537C" d="M14.923 20.697l1.157-.48s.544.777 2.834.83v1.305s-2.574-.218-3.991-1.655" mask="url(#c)"/>
            <path fill="#10537C" d="M22.902 20.697l-1.159-.48s-.54.777-2.83.83v1.305s2.575-.218 3.99-1.655" mask="url(#c)"/>
        </g>
        <path fill="#19ADE8" d="M273.5 0L241 24.795l4.318 5.927L273.5 9.221l28.183 21.501L306 24.795l-8.826-6.734h.037V6.664h-11.437v2.7z"/>
        <path fill="#10537C" d="M251.082 28.744L273.5 12 296 28.805V57h-23.378V40.516h-13.277V57H251V28.805l.082-.061zm28.736 22.079h10.54V40.516h-10.54v10.307z"/>
        <g fill="#10537C">
            <path d="M226 24.473c0-4.388 3.589-7.946 8.016-7.946s8.015 3.558 8.015 7.946-3.588 7.945-8.015 7.945c-4.427 0-8.016-3.557-8.016-7.945"/>
            <path d="M236.969 24.473c0-4.388 3.588-7.946 8.015-7.946 4.427 0 8.016 3.558 8.016 7.946s-3.589 7.945-8.016 7.945-8.015-3.557-8.015-7.945"/>
            <path d="M231.906 16.945c0-4.388 3.589-7.945 8.016-7.945s8.016 3.557 8.016 7.945c0 4.389-3.59 7.946-8.016 7.946-4.427 0-8.016-3.557-8.016-7.946"/>
            <path d="M238.592 54.493h2.593V19.461h-2.593z"/>
        </g>
        <path fill="#10537C" d="M224 55h84v3h-84z"/>
        <g>
            <path fill="#19ADE8" fill-rule="nonzero" d="M194.45 113.416c5.88 0 10.997-2.218 10.997-4.959 0-2.74-5.12-4.959-10.996-4.959s-10.996 2.219-10.996 4.96c0 2.74 5.117 4.958 10.996 4.958zm.205-4.426c-.656-.199-2.672-.367-2.672-1.488 0-.625.736-1.184 2.108-1.31v-.489h.706v.466a9.94 9.94 0 0 1 1.726.199l-.258.757c-.485-.112-1.026-.218-1.557-.218l-.158.003c-1.06.043-1.145.632-.413.883 1.201.37 2.785.644 2.785 1.63 0 .787-.954 1.21-2.128 1.312v.483h-.706v-.46a7.088 7.088 0 0 1-2.118-.337l.323-.757c.538.139 1.211.278 1.821.278l.459-.033c.815-.113.976-.662.082-.92zm-.204 17.651c4.16 0 8.479-1.068 10.996-3.088v1.435c0 2.74-5.12 5.012-10.996 5.012s-10.996-2.271-10.996-5.012v-1.435c2.517 2.023 6.832 3.088 10.996 3.088zm0-11.02c4.16 0 8.479-1.067 10.996-3.087v1.435c0 2.74-5.12 4.959-10.996 4.959s-10.996-2.219-10.996-4.96v-1.434c2.517 2.02 6.832 3.088 10.996 3.088zm0 5.512c4.16 0 8.479-1.068 10.996-3.091v1.438c0 2.737-5.12 4.96-10.996 4.96s-10.996-2.223-10.996-4.96v-1.438c2.517 2.023 6.832 3.091 10.996 3.091z"/>
            <path fill="#10537C" d="M186 87.273h-56.667V120H126V84h60z"/>
            <path fill="#10537C" d="M133 91v36h46.667v-18.052c0-5.865 6.616-8.87 13.333-9.41V91h-60z"/>
            <path fill="#E9F7FF" d="M162.5 120c-6.351 0-11.5-5.149-11.5-11.5S156.149 97 162.5 97s11.5 5.149 11.5 11.5-5.149 11.5-11.5 11.5z"/>
            <path fill="#10537C" d="M166 111.43c0 2.003-1.534 3.073-3.427 3.34V116h-1.146v-1.167c-1.181-.02-2.405-.306-3.427-.846l.522-1.917c1.09.43 2.546.89 3.682.63 1.312-.303 1.583-1.683.134-2.35-1.064-.5-4.318-.937-4.318-3.78 0-1.59 1.184-3.013 3.407-3.327V102h1.146v1.187c.826.02 1.756.17 2.79.49l-.414 1.92c-.878-.314-1.847-.6-2.79-.54-1.701.103-1.851 1.606-.667 2.236 1.956.94 4.508 1.637 4.508 4.137z"/>
        </g>
        <g>
            <path fill="#19ADE8" fill-rule="nonzero" d="M173.4 231.592h-42.35c-3.34 0-6.05 2.718-6.05 6.068v24.272c0 3.35 2.71 6.068 6.05 6.068h42.35c3.34 0 6.05-2.718 6.05-6.068V237.66c0-3.35-2.71-6.068-6.05-6.068zm-33.275 30.34h-6.05v-3.034h6.05v3.034zm9.075 0h-6.05v-3.034h6.05v3.034zm.968-10.246a7.506 7.506 0 0 1-3.993 1.144c-4.178 0-7.563-3.395-7.563-7.585 0-4.19 3.385-7.585 7.563-7.585 1.464 0 2.834.419 3.993 1.144a9.276 9.276 0 0 0-2.592 6.441c0 2.5.986 4.766 2.592 6.441zm11.132 10.246h-6.05v-3.034h6.05v3.034zm-3.025-9.102c-4.178 0-7.563-3.395-7.563-7.585 0-4.19 3.385-7.585 7.563-7.585s7.562 3.395 7.562 7.585c0 4.19-3.384 7.585-7.562 7.585zm12.1 9.102h-6.05v-3.034h6.05v3.034z"/>
            <path fill="#10537C" d="M191.889 208H149.11c-3.373 0-6.111 2.688-6.111 6v12h48.889v10.5c0 .828-.685 1.5-1.528 1.5h-4.583v6h6.11c3.374 0 6.112-2.688 6.112-6v-24c0-3.312-2.738-6-6.111-6z"/>
            <path fill="#E9F7FF" d="M192 216h-43v-1.5c0-.828.688-1.5 1.536-1.5h39.928c.848 0 1.536.672 1.536 1.5v1.5z"/>
        </g>
        <g>
            <path fill="#10537C" fill-rule="nonzero" d="M267.123 309.396c-18.42 0-28.077-3.307-33.123-7.034V327h65v-24.237c-8.715 6.015-25.518 6.633-31.877 6.633zm4.794 6.857c0 2.944-2.427 5.33-5.417 5.33-2.99 0-5.417-2.386-5.417-5.33v-2.795h10.834v2.795z"/>
            <path fill="#19ADE8" d="M234 293.899V287h65v7.214c0 14.647-65 14.215-65-.315zM258.4 273c-2.98 0-5.4 2.464-5.4 5.5v5.5h5.4v-4.125c0-.759.605-1.375 1.35-1.375h13.5c.745 0 1.35.616 1.35 1.375V284h5.4v-5.5c0-3.036-2.42-5.5-5.4-5.5h-16.2z"/>
        </g>
        <g>
            <text font-family="WalkwayExpandBlack, Walkway Expand Black" font-size="50" font-weight="700" transform="translate(416 56)">
                <tspan x="51.725" y="223" fill="#00395A">TDA </tspan> <tspan x="201.275" y="223" fill="#19ADE8">AI</tspan>
            </text>
            <path fill="#FFF" d="M522.526 125.085a50.231 50.231 0 0 0-20.931-4.551c-27.943 0-50.595 22.73-50.595 50.773 0 24.46 17.241 44.878 40.192 49.693v-14.098c-15.342-4.522-26.585-18.755-26.585-35.595 0-20.467 16.592-37.12 36.988-37.12 5.318 0 10.465 1.12 15.296 3.325l16.076 7.343 2.972-17.473c5.679-33.397 34.315-57.637 68.087-57.637 38.1 0 69.095 31.105 69.095 69.34 0 20.847-9.227 39.56-23.784 52.282v17.094c22.496-14.846 37.389-40.392 37.389-69.376 0-45.762-37.1-82.993-82.7-82.993-40.845 0-74.847 29.876-81.5 68.993z"/>
            <path stroke="#19ADE8" d="M574.062 143.594l29.06 2.575M662.83 150.067l-2.685-24.85-14.574-27.009-26.48-15.55-23.192-.337-26.664 9.274-9.93 31.458 15.686 20.343 7.003 15.818 22.435 10.223 10.086 33.214 11.519-12.525 24.882-16.678z"/>
            <path stroke="#19ADE8" d="M590.771 101.486l17.624-6.551 21.01 11.945 15.982-8.203 1.613 37.52 12.84-10.066M603.728 169.195l21.013-20.749M630.575 172.39l-4.362 17.873"/>
            <path stroke="#19ADE8" d="M590.95 100.648l5.018 27.895-17.331-8.83M603.728 169.195l-.606-23.026M608.812 94.021l6.68 27.87"/>
            <path stroke="#19ADE8" d="M662.662 150.395l-15.33-15.109-31.701-12.524-24.371-21.957-22.19-8.887 9.856 27.942 17.5 8.917M651.393 172.512l-20.465-.817M603.728 169.195l21.378 21.378"/>
            <path stroke="#19ADE8" d="M662.61 148.635l-16.791 4.435 1.581-19.29M603.996 170.205l26.497 2.345-5.033-23.51-9.884-26.282 14.099-16.527-10.646-23.605-10.32 11.701-12.945-11.954"/>
            <path stroke="#19ADE8" d="M651.04 173.205l-5.332-18.444-20.035-6.28M581.69 158.84l21.381-12.571 12.422-24.379-19.149 6.085-21.574 15.05 4.174-23.916"/>
            <path stroke="#19ADE8" d="M596.318 127.856l6.779 18.3 22.298 1.759 21.742-13.619-17.635-28.859M595.787 82.142l-4.432 18.197-12.36 19.043-19.977 3.44M646.1 154.96l-15.172 16.735M626.033 190.171l-3.699 13.294-7.71-1.632"/>
            <path fill="#19ADE8" d="M646.537 98.434c-.345.759-1.177 1.13-1.858.83-.682-.3-.954-1.16-.609-1.919.346-.76 1.178-1.13 1.86-.83.68.3.953 1.16.607 1.919"/>
            <path stroke="#19ADE8" stroke-width="30.221" d="M632.783 92.178a13.668 13.668 0 0 0 7.047 18.161 13.63 13.63 0 0 0 17.995-6.738 13.668 13.668 0 0 0-7.047-18.162 13.63 13.63 0 0 0-17.995 6.739z"/>
            <path fill="#19ADE8" d="M631.244 106.57c-.494 1.084-1.682 1.615-2.656 1.186-.973-.43-1.362-1.657-.869-2.742.494-1.084 1.683-1.615 2.656-1.186.973.43 1.362 1.657.869 2.741"/>
            <path stroke="#19ADE8" stroke-width="30.221" d="M617.489 100.313c-2.839 6.242-.315 14.207 6.787 17.34 6.966 3.073 14.41-.253 17.198-6.383 2.84-6.242.315-14.206-6.787-17.34-6.966-3.073-14.41.254-17.198 6.383z"/>
            <path fill="#19ADE8" d="M649.017 135.501c-.493 1.085-1.682 1.616-2.655 1.187-.974-.43-1.363-1.657-.87-2.742.494-1.084 1.683-1.616 2.656-1.186.973.43 1.362 1.656.869 2.741"/>
            <path stroke="#19ADE8" stroke-width="30.221" d="M635.262 129.245c-2.839 6.242-.314 14.207 6.787 17.34 6.967 3.073 14.41-.253 17.198-6.383 2.84-6.242.315-14.206-6.786-17.34-6.967-3.073-14.41.253-17.199 6.383z"/>
            <path fill="#19ADE8" d="M646.77 155.058c-.346.76-1.178 1.131-1.86.83-.68-.3-.953-1.159-.608-1.918.346-.76 1.178-1.131 1.859-.83.681.3.954 1.159.608 1.918"/>
            <path stroke="#19ADE8" stroke-width="30.221" d="M633.015 148.802a13.668 13.668 0 0 0 7.047 18.162 13.63 13.63 0 0 0 17.995-6.739 13.668 13.668 0 0 0-7.047-18.161 13.63 13.63 0 0 0-17.995 6.738z"/>
            <path fill="#19ADE8" d="M614.836 201.17c.681.3.954 1.16.608 1.919-.345.76-1.177 1.131-1.858.83-.682-.3-.954-1.16-.609-1.918.346-.76 1.178-1.131 1.86-.83"/>
            <path stroke="#19ADE8" stroke-width="30.221" d="M608.737 214.995a13.63 13.63 0 0 0 17.995-6.739 13.668 13.668 0 0 0-7.047-18.161 13.63 13.63 0 0 0-17.995 6.738 13.668 13.668 0 0 0 7.047 18.162z"/>
            <path fill="#19ADE8" d="M660.827 123c.973.43 1.362 1.657.87 2.741-.494 1.085-1.683 1.616-2.656 1.187-.973-.43-1.362-1.657-.869-2.741.493-1.085 1.682-1.616 2.655-1.187"/>
            <path stroke="#19ADE8" stroke-width="30.221" d="M654.728 136.825c6.967 3.073 14.41-.253 17.199-6.383 2.839-6.241.314-14.206-6.787-17.339-6.967-3.074-14.41.253-17.198 6.382-2.84 6.242-.315 14.207 6.786 17.34z"/>
            <path fill="#19ADE8" d="M663.265 148.495c.681.3.953 1.16.608 1.92-.345.759-1.177 1.13-1.859.83-.68-.3-.953-1.16-.608-1.92.345-.758 1.178-1.13 1.859-.83"/>
            <path stroke="#19ADE8" stroke-width="30.221" d="M657.165 162.32a13.63 13.63 0 0 0 17.996-6.738 13.668 13.668 0 0 0-7.048-18.162 13.63 13.63 0 0 0-17.995 6.738 13.668 13.668 0 0 0 7.047 18.162z"/>
            <path fill="#19ADE8" d="M651.597 171.332c.973.43 1.362 1.657.868 2.742-.493 1.084-1.682 1.616-2.655 1.186-.973-.43-1.362-1.656-.869-2.741.494-1.085 1.682-1.616 2.656-1.187"/>
            <path stroke="#19ADE8" stroke-width="30.221" d="M645.497 185.157c6.967 3.074 14.411-.252 17.199-6.382 2.839-6.242.314-14.207-6.786-17.34-6.967-3.073-14.411.253-17.2 6.383-2.838 6.242-.314 14.206 6.787 17.34z"/>
            <path fill="#19ADE8" d="M631.204 170.318c.681.3.954 1.16.608 1.92-.345.758-1.177 1.13-1.858.83-.682-.3-.954-1.16-.609-1.92.346-.758 1.178-1.13 1.86-.83"/>
            <path stroke="#19ADE8" stroke-width="30.221" d="M625.105 184.143a13.63 13.63 0 0 0 17.995-6.738 13.668 13.668 0 0 0-7.048-18.162 13.63 13.63 0 0 0-17.994 6.738 13.668 13.668 0 0 0 7.047 18.162z"/>
            <path fill="#19ADE8" d="M626.65 188.034c.973.43 1.362 1.657.869 2.741-.494 1.085-1.682 1.616-2.656 1.187-.973-.43-1.362-1.657-.868-2.741.493-1.085 1.682-1.616 2.655-1.187"/>
            <path stroke="#19ADE8" stroke-width="30.221" d="M620.55 201.859c6.968 3.074 14.411-.253 17.2-6.382 2.838-6.242.314-14.207-6.787-17.34-6.967-3.074-14.41.253-17.199 6.382-2.839 6.242-.314 14.207 6.787 17.34z"/>
            <path fill="#19ADE8" d="M622.028 202.896c.486.215.68.829.434 1.37-.246.543-.84.809-1.327.594-.487-.215-.681-.828-.435-1.37.247-.543.841-.808 1.328-.594"/>
            <path stroke="#19ADE8" stroke-width="30.221" d="M615.93 216.721h-.002c7.454 3.288 15.492-.303 18.527-6.976 3.085-6.784.367-15.362-7.22-18.71-7.454-3.288-15.493.304-18.527 6.976-3.086 6.784-.367 15.363 7.221 18.71z"/>
            <path fill="#19ADE8" d="M604.972 167.288c.973.43 1.362 1.657.869 2.742-.494 1.084-1.683 1.615-2.656 1.186-.973-.43-1.362-1.657-.869-2.741.494-1.085 1.682-1.616 2.656-1.187"/>
            <path stroke="#19ADE8" stroke-width="30.221" d="M598.872 181.113c6.967 3.074 14.411-.253 17.2-6.382 2.838-6.242.314-14.207-6.787-17.34-6.967-3.074-14.411.253-17.2 6.382-2.838 6.242-.314 14.207 6.787 17.34z"/>
            <path fill="#19ADE8" d="M626.341 146.348c.973.43 1.362 1.656.87 2.741-.494 1.085-1.683 1.616-2.656 1.187-.973-.43-1.362-1.657-.869-2.742.493-1.084 1.682-1.616 2.655-1.186"/>
            <path stroke="#19ADE8" stroke-width="30.221" d="M620.242 160.173c6.967 3.073 14.41-.253 17.199-6.383 2.839-6.242.314-14.206-6.787-17.34-6.967-3.073-14.41.253-17.198 6.383-2.84 6.242-.315 14.207 6.786 17.34z"/>
            <path fill="#19ADE8" d="M582.466 157.032c.973.43 1.362 1.657.869 2.741-.494 1.085-1.682 1.616-2.656 1.187-.973-.43-1.362-1.657-.868-2.741.493-1.085 1.682-1.616 2.655-1.187"/>
            <path stroke="#19ADE8" stroke-width="30.221" d="M576.367 170.857c6.966 3.074 14.41-.253 17.198-6.383 2.84-6.242.315-14.206-6.786-17.339-6.967-3.074-14.411.253-17.199 6.382-2.839 6.242-.315 14.207 6.787 17.34z"/>
            <path fill="#19ADE8" d="M603.675 145.128c.68.3.953 1.16.608 1.918-.346.76-1.178 1.132-1.859.831-.681-.3-.953-1.16-.608-1.919.345-.76 1.177-1.131 1.859-.83"/>
            <path stroke="#19ADE8" stroke-width="30.221" d="M597.575 158.952a13.63 13.63 0 0 0 17.996-6.738 13.668 13.668 0 0 0-7.048-18.162 13.63 13.63 0 0 0-17.995 6.739 13.668 13.668 0 0 0 7.047 18.161z"/>
            <path fill="#19ADE8" d="M597.094 126.202c.973.429 1.362 1.656.87 2.741-.494 1.085-1.683 1.616-2.656 1.187-.973-.43-1.362-1.657-.87-2.742.494-1.084 1.683-1.616 2.656-1.186"/>
            <path stroke="#19ADE8" stroke-width="30.221" d="M590.995 140.027c6.967 3.073 14.41-.253 17.199-6.383 2.839-6.242.314-14.206-6.787-17.34-6.967-3.073-14.41.253-17.199 6.383-2.839 6.242-.314 14.207 6.787 17.34z"/>
            <path fill="#19ADE8" d="M579.092 118.238c.486.215.68.829.434 1.371-.247.542-.841.808-1.328.593-.486-.214-.68-.828-.434-1.37.247-.543.841-.808 1.328-.594"/>
            <path stroke="#19ADE8" stroke-width="30.221" d="M572.993 132.063c7.453 3.289 15.49-.303 18.526-6.976 3.085-6.784.366-15.362-7.222-18.71-7.453-3.288-15.491.304-18.526 6.976-3.085 6.784-.366 15.363 7.222 18.71z"/>
            <path fill="#19ADE8" d="M575.166 141.765c.681.3.953 1.16.608 1.92-.345.759-1.177 1.13-1.859.83-.68-.3-.953-1.16-.608-1.92.345-.758 1.178-1.13 1.859-.83"/>
            <path stroke="#19ADE8" stroke-width="30.221" d="M569.067 155.59a13.63 13.63 0 0 0 17.995-6.738 13.668 13.668 0 0 0-7.048-18.162 13.63 13.63 0 0 0-17.995 6.739 13.668 13.668 0 0 0 7.048 18.161z"/>
            <path fill="#19ADE8" d="M559.692 120.78c.973.43 1.362 1.657.869 2.742-.494 1.084-1.683 1.616-2.656 1.186-.973-.43-1.362-1.656-.869-2.741.494-1.085 1.683-1.616 2.656-1.187"/>
            <path stroke="#19ADE8" stroke-width="30.221" d="M553.592 134.605c6.967 3.074 14.411-.252 17.2-6.382 2.838-6.242.314-14.207-6.788-17.34-6.966-3.073-14.41.253-17.198 6.383-2.839 6.242-.315 14.206 6.786 17.34z"/>
            <path fill="#19ADE8" d="M591.893 98.178c.973.429 1.362 1.656.869 2.741-.494 1.085-1.682 1.616-2.656 1.186-.973-.429-1.362-1.656-.869-2.74.494-1.085 1.683-1.617 2.656-1.187"/>
            <path stroke="#19ADE8" stroke-width="30.221" d="M585.794 112.003c6.966 3.073 14.41-.253 17.198-6.383 2.84-6.242.315-14.207-6.787-17.34-6.966-3.073-14.41.253-17.198 6.383-2.839 6.242-.315 14.207 6.787 17.34z"/>
            <path fill="#19ADE8" d="M569.635 89.259c.973.429 1.362 1.656.869 2.741-.494 1.085-1.683 1.616-2.656 1.187-.973-.43-1.362-1.657-.869-2.742.494-1.084 1.683-1.616 2.656-1.186"/>
            <path stroke="#19ADE8" stroke-width="30.221" d="M563.536 103.084c6.966 3.073 14.41-.253 17.198-6.383 2.839-6.242.315-14.207-6.787-17.34-6.966-3.073-14.41.253-17.198 6.383-2.84 6.242-.315 14.207 6.787 17.34z"/>
            <path fill="#19ADE8" d="M596.104 80.568c.68.3.953 1.16.608 1.919-.346.759-1.178 1.13-1.859.83-.681-.3-.953-1.16-.608-1.919.345-.76 1.177-1.13 1.859-.83"/>
            <path stroke="#19ADE8" stroke-width="30.221" d="M590.004 94.392A13.63 13.63 0 0 0 608 87.654a13.668 13.668 0 0 0-7.048-18.162 13.63 13.63 0 0 0-17.995 6.739 13.668 13.668 0 0 0 7.047 18.161z"/>
            <path fill="#19ADE8" d="M609.096 92.5c.681.301.953 1.16.608 1.92-.345.759-1.178 1.13-1.859.83-.681-.3-.953-1.16-.608-1.919.345-.76 1.178-1.131 1.859-.83"/>
            <path stroke="#19ADE8" stroke-width="30.221" d="M602.996 106.325a13.63 13.63 0 0 0 17.996-6.738 13.668 13.668 0 0 0-7.048-18.162 13.63 13.63 0 0 0-17.995 6.738 13.668 13.668 0 0 0 7.047 18.162z"/>
            <path fill="#19ADE8" d="M619.632 80.327c.973.43 1.362 1.657.869 2.742-.494 1.084-1.682 1.616-2.656 1.186-.973-.429-1.362-1.656-.868-2.741.493-1.085 1.682-1.616 2.655-1.187"/>
            <path stroke="#19ADE8" stroke-width="30.221" d="M613.533 94.152c6.967 3.074 14.41-.252 17.198-6.382 2.84-6.242.315-14.207-6.786-17.34-6.967-3.073-14.411.253-17.199 6.383-2.839 6.242-.314 14.206 6.787 17.34z"/>
            <path fill="#19ADE8" d="M616.08 120.78c.682.3.954 1.16.609 1.918-.346.76-1.178 1.131-1.859.831-.681-.3-.953-1.16-.608-1.919.345-.76 1.177-1.131 1.859-.83"/>
            <path stroke="#19ADE8" stroke-width="30.221" d="M609.981 134.604a13.63 13.63 0 0 0 17.996-6.738 13.668 13.668 0 0 0-7.048-18.162 13.63 13.63 0 0 0-17.995 6.738 13.668 13.668 0 0 0 7.047 18.162z"/>
            <g fill="#00395A">
                <path d="M578.487 202.445c-5.12-2.08-7.586-7.924-5.506-13.043 2.077-5.122 7.914-7.59 13.033-5.51 5.119 2.082 7.585 7.92 5.505 13.042-2.078 5.121-7.914 7.59-13.032 5.51m22.494-4.751l-2.902-1.181c-.382-.155-.687-.563-.768-.981a15.31 15.31 0 0 0-.032-4.925c.071-.424.368-.84.755-1.005l2.884-1.217a.957.957 0 0 0 .506-1.248l-1.483-3.517a.955.955 0 0 0-1.249-.505l-2.88 1.217c-.388.165-.893.087-1.249-.159a15.19 15.19 0 0 0-3.507-3.454c-.242-.355-.324-.853-.166-1.238l1.178-2.903a.955.955 0 0 0-.526-1.243l-3.53-1.434a.955.955 0 0 0-1.241.524l-1.18 2.903c-.154.386-.559.689-.981.77a15.19 15.19 0 0 0-4.92.032c-.428-.071-.84-.369-1.003-.755l-1.218-2.885a.952.952 0 0 0-1.247-.504l-3.514 1.481a.957.957 0 0 0-.504 1.251l1.216 2.883c.164.386.086.893-.157 1.25a15.061 15.061 0 0 0-3.453 3.506c-.354.244-.852.324-1.24.168l-2.9-1.181a.953.953 0 0 0-1.242.527l-1.434 3.531a.96.96 0 0 0 .526 1.246l2.897 1.177c.388.155.688.56.774.983a15.176 15.176 0 0 0 .032 4.923c-.075.429-.37.844-.757 1.007l-2.881 1.218a.954.954 0 0 0-.508 1.248l1.482 3.515a.957.957 0 0 0 1.249.507l2.882-1.218c.39-.163.892-.087 1.248.158a15.096 15.096 0 0 0 3.507 3.456c.242.354.322.853.165 1.24l-1.18 2.9a.96.96 0 0 0 .525 1.244l3.53 1.435a.958.958 0 0 0 1.244-.525l1.178-2.903c.155-.388.56-.689.981-.772 1.658.261 3.318.243 4.924-.034.427.077.841.373 1.003.76l1.216 2.884a.954.954 0 0 0 1.25.506l3.512-1.482a.959.959 0 0 0 .507-1.25l-1.218-2.885c-.166-.387-.088-.892.156-1.249a15.163 15.163 0 0 0 3.453-3.51c.356-.243.855-.321 1.24-.163l2.902 1.178a.958.958 0 0 0 1.24-.527l1.435-3.53a.96.96 0 0 0-.527-1.245"/>
            </g>
            <g fill="#00395A">
                <path d="M549.633 167.522c-4.602-1.87-6.82-7.124-4.95-11.727 1.868-4.604 7.116-6.823 11.718-4.953a9.002 9.002 0 0 1 4.95 11.725c-1.869 4.605-7.115 6.823-11.718 4.955m20.224-4.272l-2.609-1.063c-.343-.139-.617-.505-.69-.881.232-1.49.216-2.985-.029-4.428.064-.382.33-.755.679-.904l2.593-1.094a.86.86 0 0 0 .455-1.122l-1.333-3.162a.858.858 0 0 0-1.123-.454l-2.59 1.094c-.348.149-.803.078-1.122-.142a13.657 13.657 0 0 0-3.154-3.106c-.218-.32-.29-.767-.149-1.113l1.06-2.61a.859.859 0 0 0-.474-1.118l-3.173-1.289a.858.858 0 0 0-1.117.471l-1.06 2.61c-.14.347-.502.62-.882.693a13.656 13.656 0 0 0-4.424.028c-.384-.064-.756-.331-.901-.679l-1.095-2.594a.856.856 0 0 0-1.122-.453l-3.159 1.332a.86.86 0 0 0-.453 1.125l1.093 2.592c.147.347.078.802-.141 1.123a13.541 13.541 0 0 0-3.105 3.153c-.317.219-.766.291-1.114.15l-2.608-1.061a.857.857 0 0 0-1.116.474l-1.29 3.175a.863.863 0 0 0 .473 1.12l2.605 1.058c.348.14.619.503.696.883a13.644 13.644 0 0 0 .028 4.427c-.067.385-.332.758-.68.905l-2.59 1.095a.858.858 0 0 0-.457 1.122l1.333 3.16a.86.86 0 0 0 1.122.456l2.592-1.095c.35-.146.801-.078 1.122.142a13.572 13.572 0 0 0 3.152 3.107c.218.319.29.767.149 1.115l-1.06 2.608a.863.863 0 0 0 .47 1.118l3.175 1.29a.861.861 0 0 0 1.118-.472l1.06-2.61c.139-.349.503-.62.882-.694a13.58 13.58 0 0 0 4.426-.03c.384.069.757.335.902.682l1.093 2.594a.858.858 0 0 0 1.124.454l3.158-1.332a.862.862 0 0 0 .456-1.123l-1.096-2.595c-.15-.347-.079-.802.141-1.122a13.633 13.633 0 0 0 3.104-3.157c.32-.218.769-.288 1.116-.146l2.609 1.06a.86.86 0 0 0 1.114-.475l1.29-3.173a.863.863 0 0 0-.474-1.12"/>
            </g>
            <g fill="#00395A">
                <path d="M505.119 184.63c-7.348.754-13.917-4.595-14.671-11.947-.756-7.352 4.59-13.928 11.937-14.683 7.349-.756 13.917 4.593 14.672 11.946.754 7.353-4.59 13.929-11.938 14.684m23.584-19.724l-4.163.428c-.553.057-1.164-.232-1.526-.676a20.294 20.294 0 0 0-3.122-5.796c-.18-.55-.093-1.226.262-1.662l2.641-3.247a1.28 1.28 0 0 0-.184-1.794l-3.953-3.218a1.277 1.277 0 0 0-1.792.185l-2.64 3.246c-.354.437-.998.662-1.572.597a20.24 20.24 0 0 0-6.304-1.881c-.51-.266-.916-.804-.972-1.36l-.428-4.165a1.278 1.278 0 0 0-1.397-1.137l-5.07.522c-.696.07-1.208.7-1.135 1.398l.426 4.164c.057.555-.23 1.165-.675 1.53a20.258 20.258 0 0 0-5.79 3.124c-.55.182-1.225.091-1.66-.264l-3.244-2.64a1.276 1.276 0 0 0-1.792.182l-3.216 3.956a1.28 1.28 0 0 0 .184 1.793l3.244 2.64c.436.355.661.999.595 1.574a20.277 20.277 0 0 0-1.88 6.31c-.265.507-.802.915-1.357.973l-4.164.427a1.281 1.281 0 0 0-1.136 1.4l.522 5.072c.07.698.7 1.21 1.397 1.138l4.162-.43c.554-.056 1.163.23 1.528.678a20.28 20.28 0 0 0 3.122 5.794c.18.55.092 1.226-.264 1.662l-2.639 3.246a1.279 1.279 0 0 0 .183 1.794l3.952 3.219a1.28 1.28 0 0 0 1.792-.184l2.64-3.249c.354-.436.999-.66 1.573-.595a20.249 20.249 0 0 0 6.305 1.88c.507.268.912.805.97 1.36l.427 4.165c.072.699.701 1.21 1.398 1.137l5.069-.522a1.277 1.277 0 0 0 1.137-1.397l-.428-4.165c-.057-.556.23-1.165.674-1.528a20.29 20.29 0 0 0 5.792-3.123c.55-.182 1.225-.093 1.662.262l3.243 2.643c.544.44 1.35.36 1.793-.184l3.215-3.956a1.28 1.28 0 0 0-.184-1.792l-3.245-2.642c-.436-.355-.66-.998-.595-1.575a20.245 20.245 0 0 0 1.88-6.309c.266-.509.804-.912 1.358-.97l4.163-.43a1.28 1.28 0 0 0 1.137-1.398l-.522-5.073a1.277 1.277 0 0 0-1.397-1.137"/>
            </g>
        </g>
    </g>
</svg>
