<svg xmlns="http://www.w3.org/2000/svg" xmlns:xlink="http://www.w3.org/1999/xlink" width="159" height="166" viewBox="0 0 159 166">
    <defs>
        <path id="a" d="M0 0h262v180H0z"/>
        <path id="c" d="M10 0h10v34H0V0z"/>
    </defs>
    <g fill="none" fill-rule="evenodd" transform="translate(-51 -11)">
        <mask id="b" fill="#fff">
            <use xlink:href="#a"/>
        </mask>
        <g mask="url(#b)">
            <path fill="#3D83AE" d="M67 153h128V14H67z"/>
            <path fill="#FFF" d="M73 136h115V24H73z"/>
            <path fill="#DBF5FF" d="M86 117h90V51H86z"/>
            <path fill="#00395A" d="M67 23h128V11H67z"/>
            <path fill="#C0EDFF" d="M161.69 80.404c9.322 13.133 6.05 31.209-7.307 40.375-13.359 9.165-31.749 5.95-41.071-7.183-9.324-13.132-6.054-31.208 7.306-40.374 13.358-9.167 31.747-5.95 41.072 7.182"/>
            <path fill="#EDFAFF" d="M113.293 112.566c5.871 8.32 15.352 12.666 24.897 12.424 2.077-9.892.2-20.573-6.108-29.51-5.042-7.143-12.118-12.042-19.914-14.48-5.75 9.52-5.713 21.881 1.125 31.566"/>
            <path fill="#19ADE8" d="M193 165.89L182.886 173 149 124.11l10.113-7.11z"/>
            <path fill="#00395A" d="M198 165.732L181.811 177 154 137.266 170.189 126z"/>
            <path fill="#FFF" d="M125.01 96.352a5.5 5.5 0 1 1-9.019 6.294 5.5 5.5 0 0 1 9.019-6.294"/>
            <path fill="#00395A" d="M152.193 116.553c-11.626 8.114-27.63 5.267-35.746-6.36-8.114-11.626-5.268-27.63 6.36-35.746 11.626-8.115 27.63-5.268 35.744 6.36 8.115 11.627 5.27 27.63-6.358 35.746m-33.865-48.521c-15.17 10.587-18.884 31.47-8.297 46.64 10.59 15.17 31.47 18.884 46.641 8.297 15.17-10.59 18.884-31.47 8.297-46.64-10.59-15.171-31.47-18.885-46.64-8.297"/>
            <g transform="translate(128 79)">
                <mask id="d" fill="#fff">
                    <use xlink:href="#c"/>
                </mask>
                <path fill="#19ADE8" d="M20 22.84c0-3.39-2.533-6.477-6.304-7.677-.58-.185-1.395-.426-2.26-.68-1.225-.361-2.613-.769-3.388-1.043a2.994 2.994 0 0 1-1.997-2.814c0-1.743 1.655-3.16 3.69-3.16 2.033 0 3.687 1.417 3.687 3.16h5.614c0-3.455-2.608-6.397-6.235-7.48V0H7.193v3.007C3.297 3.953.436 7.008.436 10.626c0 3.211 2.14 6.041 5.454 7.213.932.328 2.343.744 3.706 1.146.814.238 1.58.463 2.125.638 1.594.506 2.665 1.8 2.665 3.216 0 1.927-1.967 3.496-4.386 3.496-2.42 0-4.386-1.569-4.386-3.496H0c0 3.75 3.042 6.922 7.193 7.927V34h5.614v-3.235C16.959 29.761 20 26.59 20 22.84" mask="url(#d)"/>
            </g>
            <path fill="#009CDB" d="M51 40.884v12.835C51 60.5 60.074 66 71.268 66c11.189 0 20.261-5.5 20.261-12.28V40.883H51z"/>
            <path fill="#00395A" d="M91.53 40.884v12.835C91.53 60.5 100.605 66 111.796 66c11.19 0 20.262-5.5 20.262-12.28V40.883h-40.53z"/>
            <path fill="#009CDB" d="M131.02 40.884v12.835c0 6.78 9.069 12.281 20.265 12.281 11.188 0 20.264-5.5 20.264-12.28V40.883h-40.53z"/>
            <path fill="#00395A" d="M169.47 40.884v12.835c0 6.78 9.07 12.281 20.263 12.281C200.927 66 210 60.5 210 53.72V40.883h-40.53z"/>
            <path fill="#19ADE8" d="M91.858 40.884C94.517 34.26 97.186 27.63 99.843 21h-32.77C61.713 27.63 56.355 34.261 51 40.884h40.858z"/>
            <path fill="#0D537C" d="M132.059 40.884c-.019-6.623-.036-13.253-.052-19.884h-32.5c-2.657 6.63-5.316 13.261-7.978 19.884h40.53z"/>
            <path fill="#19ADE8" d="M169.47 40.884A26920.77 26920.77 0 0 0 161.908 21h-30.833c-.02 6.63-.035 13.261-.054 19.884h38.45z"/>
            <path fill="#0D537C" d="M210 40.884A13263.77 13263.77 0 0 1 194.266 21h-32.367s4.966 13.261 7.568 19.884H210z"/>
        </g>
    </g>
</svg>
