<svg xmlns="http://www.w3.org/2000/svg" xmlns:xlink="http://www.w3.org/1999/xlink" width="165" height="38" viewBox="0 0 165 38">
    <defs>
        <path id="a" d="M6.28 5.437V.016H.13v5.42h6.15z"/>
        <path id="c" d="M0 37.875h164.307V.181H0z"/>
    </defs>
    <g fill="none" fill-rule="evenodd">
        <path fill="#FEFEFE" d="M65 38h1V2h-1z"/>
        <path fill="#FFF" d="M90.414 6.401V26h-2.828V6.401H75V4h28v2.401z"/>
        <g>
            <path fill="#FFF" d="M127.908 8.473c-2.045-1.226-4.912-1.84-8.597-1.84h-9.681V23.44h8.21c3.836 0 6.904-.571 9.205-1.713 2.897-1.416 4.347-3.635 4.347-6.659 0-3.001-1.162-5.2-3.484-6.595zm.639 15.22c-2.855 1.396-6.467 2.094-10.834 2.094h-10.896v-21.5h12.526c4.261 0 7.659.74 10.195 2.22 3.11 1.839 4.666 4.693 4.666 8.561 0 3.869-1.885 6.744-5.657 8.626zM149.153 7.617l-6.296 9.322h12.337l-6.04-9.322zm11.73 18.17l-4.187-6.47H141.29l-4.282 6.47h-3.325l14.319-21.5h2.269l13.84 21.5h-3.229zM81.646 29.403h-2.611v4.613h-.906v-4.613h-2.61v-.808h6.127zM90.175 34.016h-.906v-2.412h-4.376v2.412h-.906v-5.421h.906v2.2h4.376v-2.2h.906zM98.939 34.016h-5.72v-5.421h5.508v.808h-4.603v1.393h3.2v.808h-3.2v1.603h4.815zM109.117 33.207c.543 0 .99-.174 1.34-.523.35-.348.524-.795.524-1.341 0-.581-.188-1.05-.562-1.406-.375-.356-.867-.534-1.476-.534h-2.626v3.804h2.8zm-.25-4.612c.952 0 1.705.251 2.26.752.557.502.835 1.175.835 2.018 0 .774-.294 1.418-.883 1.932-.548.48-1.227.719-2.038.719h-3.63v-5.421h3.456zM118.486 31.994l-1.392-2.626-1.409 2.626h2.801zm2.06 2.022h-.99l-.63-1.213h-3.68l-.63 1.213h-.99l2.89-5.421h1.14l2.89 5.42zM127.412 29.403h-2.61v4.613h-.906v-4.613h-2.611v-.808h6.127zM133.01 31.994l-1.391-2.626-1.409 2.626h2.8zm2.06 2.022h-.99l-.63-1.213h-3.68l-.629 1.213h-.99l2.89-5.421h1.14l2.89 5.42zM145.265 31.994l-1.392-2.626-1.409 2.626h2.8zm2.06 2.022h-.991l-.63-1.213h-3.68l-.63 1.213h-.99l2.891-5.421h1.14l2.89 5.42zM153.824 31.14c.7 0 1.049-.279 1.049-.838 0-.599-.37-.898-1.11-.898h-3.206v1.737h3.267zm.158-2.545c.559 0 1.002.153 1.329.46.326.308.49.718.49 1.232 0 .54-.17.95-.51 1.235-.339.285-.833.427-1.482.427h-3.252v2.067h-.906v-5.421h4.331z"/>
            <g transform="translate(158.028 28.579)">
                <mask id="b" fill="#fff">
                    <use xlink:href="#a"/>
                </mask>
                <path fill="#FFF" d="M4.302 2.562c.7 0 1.049-.28 1.049-.838 0-.6-.37-.9-1.109-.9H1.035v1.738h3.267zM4.461.016c.558 0 1 .153 1.328.46.327.308.49.718.49 1.233 0 .538-.17.95-.509 1.234-.34.285-.833.427-1.483.427H1.035v2.067H.13V.016h4.332z" mask="url(#b)"/>
            </g>
            <mask id="d" fill="#fff">
                <use xlink:href="#c"/>
            </mask>
            <path fill="#FFF" d="M39.236 37.875h3.31V10.096h-3.31zM32.578 37.875h3.31V14.501h-3.31zM25.92 37.875h3.309v-18.97h-3.31zM19.26 37.875h3.31V23.31h-3.31zM12.602 37.875h3.31V27.713h-3.31z" mask="url(#d)"/>
            <path fill="#FEFEFE" d="M16.537 15.77a11.726 11.726 0 0 0-4.84-1.04C5.238 14.73 0 19.926 0 26.336c0 5.59 3.986 10.258 9.293 11.358v-3.222c-3.548-1.034-6.147-4.287-6.147-8.136 0-4.679 3.836-8.485 8.552-8.485 1.23 0 2.42.256 3.536.76l3.717 1.678.687-3.994C20.951 8.662 27.572 3.121 35.38 3.121c8.809 0 15.975 7.11 15.975 15.85 0 4.764-2.133 9.042-5.499 11.95v3.907c5.201-3.393 8.644-9.233 8.644-15.858C54.5 8.51 45.923 0 35.38 0c-9.443 0-17.305 6.829-18.843 15.77z" mask="url(#d)"/>
        </g>
    </g>
</svg>
