<svg xmlns="http://www.w3.org/2000/svg" xmlns:xlink="http://www.w3.org/1999/xlink" width="338" height="80" viewBox="0 0 338 80">
    <defs>
        <path id="a" d="M12.901 11.302V.033H.266v11.27H12.9z"/>
        <path id="c" d="M0 78.74h337.576V.377H0z"/>
    </defs>
    <g fill="none" fill-rule="evenodd">
        <path fill="#FEFEFE" d="M133.755 77.197h2.052V3.511h-2.052zM186.46 14.33v39.817h-5.78V14.33h-25.718V9.452h57.215v4.878z"/>
        <g transform="translate(0 .54)">
            <path fill="#FEFEFE" d="M262.792 17.614c-4.202-2.548-10.09-3.823-17.663-3.823h-19.89V48.73h16.869c7.88 0 14.184-1.187 18.912-3.56 5.953-2.944 8.93-7.558 8.93-13.844 0-6.24-2.386-10.811-7.158-13.712zm1.313 31.644c-5.866 2.9-13.287 4.351-22.26 4.351h-22.384V8.913h25.734c8.755 0 15.736 1.539 20.946 4.614 6.391 3.824 9.588 9.757 9.588 17.8 0 8.042-3.874 14.02-11.624 17.931zM306.442 15.835l-12.936 19.38h25.347l-12.411-19.38zm24.1 37.773l-8.603-13.448h-31.65l-8.799 13.448h-6.83l29.418-44.695h4.662l28.434 44.695h-6.632z"/>
            <path fill="#009CDB" d="M167.745 61.128h-5.364v9.59h-1.861v-9.59h-5.364v-1.68h12.589zM185.27 70.717h-1.862v-5.013h-8.991v5.013h-1.86v-11.27h1.86v4.576h8.991v-4.576h1.861zM203.275 70.717H191.52v-11.27h11.318v1.68h-9.456v2.896h6.573v1.681h-6.573v3.332h9.892zM224.186 69.036c1.116 0 2.033-.363 2.752-1.087.719-.724 1.077-1.653 1.077-2.789 0-1.208-.386-2.182-1.154-2.922-.77-.74-1.782-1.11-3.032-1.11h-5.395v7.908h5.752zm-.513-9.59c1.955 0 3.502.524 4.644 1.566 1.142 1.043 1.714 2.44 1.714 4.194 0 1.609-.605 2.947-1.813 4.017-1.128.996-2.523 1.494-4.187 1.494h-7.458v-11.27h7.1zM243.435 66.514l-2.86-5.46-2.894 5.46h5.754zm4.233 4.203h-2.036l-1.294-2.522h-7.56l-1.294 2.522h-2.035l5.938-11.27h2.342l5.939 11.27zM261.774 61.128h-5.365v9.59h-1.86v-9.59h-5.364v-1.68h12.589zM273.276 66.514l-2.859-5.46-2.894 5.46h5.753zm4.233 4.203h-2.035l-1.294-2.522h-7.56l-1.294 2.522h-2.034l5.938-11.27h2.341l5.938 11.27zM298.453 66.514l-2.86-5.46-2.894 5.46h5.754zm4.233 4.203h-2.037l-1.293-2.522h-7.56l-1.295 2.522h-2.034l5.94-11.27h2.34l5.939 11.27zM316.038 64.74c1.437 0 2.155-.58 2.155-1.743 0-1.246-.76-1.868-2.28-1.868h-6.588v3.61h6.713zm.325-5.293c1.147 0 2.058.32 2.73.958.671.638 1.008 1.492 1.008 2.561 0 1.12-.35 1.976-1.047 2.567-.698.592-1.713.888-3.047.888h-6.682v4.296h-1.86v-11.27h8.898z"/>
            <g transform="translate(324.675 59.414)">
                <mask id="b" fill="#fff">
                    <use xlink:href="#a"/>
                </mask>
                <path fill="#009CDB" d="M8.84 5.325c1.436 0 2.154-.58 2.154-1.742 0-1.246-.76-1.869-2.279-1.869H2.127v3.611H8.84zM9.164.033c1.147 0 2.057.319 2.729.958.671.638 1.008 1.492 1.008 2.561 0 1.12-.35 1.976-1.047 2.567-.697.592-1.712.887-3.047.887h-6.68v4.296H.265V.033h8.899z" mask="url(#b)"/>
            </g>
            <mask id="d" fill="#fff">
                <use xlink:href="#c"/>
            </mask>
            <path fill="#009CDB" d="M80.612 78.74h6.8V20.99h-6.8zM66.932 78.74h6.8V30.147h-6.8zM53.252 78.74h6.8V39.303h-6.8zM39.572 78.74h6.8V48.46h-6.8zM25.892 78.74h6.8V57.615h-6.8z" mask="url(#d)"/>
            <path fill="#FEFEFE" d="M33.976 32.785a23.853 23.853 0 0 0-9.943-2.162C10.76 30.623 0 41.424 0 54.75c0 11.624 8.19 21.326 19.092 23.614v-6.699C11.804 69.516 6.463 62.753 6.463 54.75c0-9.726 7.882-17.64 17.57-17.64 2.527 0 4.972.533 7.266 1.581l7.636 3.49 1.412-8.304c2.698-15.87 16.3-27.39 32.343-27.39 18.098 0 32.821 14.782 32.821 32.951 0 9.907-4.383 18.8-11.298 24.845v8.123c10.686-7.055 17.76-19.195 17.76-32.968C111.974 17.692 94.352 0 72.69 0 53.288 0 37.136 14.197 33.976 32.785z" mask="url(#d)"/>
        </g>
    </g>
</svg>
