<?xml version="1.0" encoding="UTF-8"?>
<svg width="359px" height="90px" viewBox="0 0 359 90" version="1.1" xmlns="http://www.w3.org/2000/svg" xmlns:xlink="http://www.w3.org/1999/xlink">
    <!-- Generator: Sketch 48.1 (47250) - http://www.bohemiancoding.com/sketch -->
    <title>pattern-divider-01</title>
    <desc>Created with Sketch.</desc>
    <defs>
        <linearGradient x1="50%" y1="100%" x2="50%" y2="0.412547832%" id="linearGradient-1">
            <stop stop-color="#E9F7FF" offset="0%"></stop>
            <stop stop-color="#DBF0FC" offset="100%"></stop>
        </linearGradient>
    </defs>
    <g id="Website-r01-v01" stroke="none" stroke-width="1" fill="none" fill-rule="evenodd" transform="translate(0.000000, -1325.000000)">
        <g id="pattern-divider-01" transform="translate(-2.000000, 1325.000000)">
            <g id="Group-7">
                <path d="M3,24.9710983 L33.1,24.9710983 C34.7568542,24.9710983 36.1,26.314244 36.1,27.9710983 L36.1,90 L0,90 L4.4408921e-16,27.9710983 C2.41183085e-16,26.314244 1.34314575,24.9710983 3,24.9710983 Z" id="Rectangle-12" fill="url(#linearGradient-1)"></path>
                <path d="M111.3,31.734104 L141.4,31.734104 C143.056854,31.734104 144.4,33.0772498 144.4,34.734104 L144.4,90 L108.3,90 L108.3,34.734104 C108.3,33.0772498 109.643146,31.734104 111.3,31.734104 Z" id="Rectangle-12-Copy-3" fill="#E9F7FF"></path>
                <path d="M327.9,53.0635838 L358,53.0635838 C359.656854,53.0635838 361,54.4067296 361,56.0635838 L361,90 L324.9,90 L324.9,56.0635838 C324.9,54.4067296 326.243146,53.0635838 327.9,53.0635838 Z" id="Rectangle-12-Copy-9" fill="#E9F7FF"></path>
                <path d="M219.6,16.1271676 L249.7,16.1271676 C251.356854,16.1271676 252.7,17.4703134 252.7,19.1271676 L252.7,90 L216.6,90 L216.6,19.1271676 C216.6,17.4703134 217.943146,16.1271676 219.6,16.1271676 Z" id="Rectangle-12-Copy-6" fill="url(#linearGradient-1)"></path>
                <path d="M39.1,0 L69.2,-4.4408921e-16 C70.8568542,3.66629817e-15 72.2,1.34314575 72.2,3 L72.2,90 L36.1,90 L36.1,3 C36.1,1.34314575 37.4431458,-1.39730022e-16 39.1,-4.4408921e-16 Z" id="Rectangle-12-Copy" fill="#E9F7FF"></path>
                <path d="M147.4,16.1271676 L177.5,16.1271676 C179.156854,16.1271676 180.5,17.4703134 180.5,19.1271676 L180.5,90 L144.4,90 L144.4,19.1271676 C144.4,17.4703134 145.743146,16.1271676 147.4,16.1271676 Z" id="Rectangle-12-Copy-4" fill="url(#linearGradient-1)"></path>
                <path d="M255.7,0 L285.8,4.4408921e-16 C287.456854,-4.27501655e-15 288.8,1.34314575 288.8,3 L288.8,90 L252.7,90 L252.7,3 C252.7,1.34314575 254.043146,7.48448398e-16 255.7,4.4408921e-16 Z" id="Rectangle-12-Copy-7" fill="#E9F7FF"></path>
                <path d="M75.2,43.1791908 L105.3,43.1791908 C106.956854,43.1791908 108.3,44.5223365 108.3,46.1791908 L108.3,90 L72.2,90 L72.2,46.1791908 C72.2,44.5223365 73.5431458,43.1791908 75.2,43.1791908 Z" id="Rectangle-12-Copy-2" fill="url(#linearGradient-1)"></path>
                <path d="M183.5,36.9364162 L213.6,36.9364162 C215.256854,36.9364162 216.6,38.2795619 216.6,39.9364162 L216.6,90 L180.5,90 L180.5,39.9364162 C180.5,38.2795619 181.843146,36.9364162 183.5,36.9364162 Z" id="Rectangle-12-Copy-5" fill="#E9F7FF"></path>
                <path d="M291.8,43.1791908 L321.9,43.1791908 C323.556854,43.1791908 324.9,44.5223365 324.9,46.1791908 L324.9,90 L288.8,90 L288.8,46.1791908 C288.8,44.5223365 290.143146,43.1791908 291.8,43.1791908 Z" id="Rectangle-12-Copy-8" fill="url(#linearGradient-1)"></path>
            </g>
        </g>
    </g>
</svg>